<svg width="100" height="124" viewBox="0 0 100 124" fill="none" xmlns="http://www.w3.org/2000/svg">
<path d="M100 50C100 77.6142 77.6142 100 50 100C22.3858 100 0 77.6142 0 50C0 22.3858 22.3858 0 50 0C77.6142 0 100 22.3858 100 50ZM14 50C14 69.8822 30.1177 86 50 86C69.8822 86 86 69.8822 86 50C86 30.1177 69.8822 14 50 14C30.1177 14 14 30.1177 14 50Z" fill="#928A97" fill-opacity="0.27"/>
<path d="M50 100C39.0745 100 28.4498 96.4215 19.7506 89.8117C11.0514 83.2019 4.75653 73.9248 1.82875 63.3989C-1.09903 52.8731 -0.498603 41.6779 3.53821 31.5256C7.57503 21.3733 14.826 12.8226 24.1823 7.18123C33.5386 1.53984 44.4851 -0.881743 55.3479 0.286825C66.2107 1.45539 76.3917 6.14979 84.3341 13.6521C92.2764 21.1544 97.5429 31.0516 99.328 41.8303C101.113 52.6089 99.3188 63.6756 94.2193 73.3379L81.8379 66.8033C85.5095 59.8464 86.8015 51.8784 85.5162 44.1178C84.2309 36.3572 80.439 29.2312 74.7205 23.8295C69.0021 18.4278 61.6717 15.0479 53.8505 14.2065C46.0293 13.3651 38.1478 15.1087 31.4113 19.1705C24.6747 23.2323 19.454 29.3888 16.5475 36.6985C13.641 44.0081 13.2087 52.0686 15.3167 59.6472C17.4247 67.2258 21.957 73.9054 28.2204 78.6644C34.4839 83.4235 42.1337 86 50 86L50 100Z" fill="#000C24"/>
<path d="M43.194 56.192C42.554 56.192 41.974 56.068 41.454 55.82C40.938 55.568 40.53 55.224 40.23 54.788C39.93 54.352 39.78 53.856 39.78 53.3C39.78 52.716 39.944 52.192 40.272 51.728C40.6 51.26 41.034 50.918 41.574 50.702C41.138 50.482 40.796 50.172 40.548 49.772C40.3 49.372 40.176 48.94 40.176 48.476C40.176 47.988 40.312 47.552 40.584 47.168C40.856 46.784 41.218 46.48 41.67 46.256C42.126 46.032 42.634 45.92 43.194 45.92C43.57 45.92 43.938 45.98 44.298 46.1C44.658 46.216 44.982 46.386 45.27 46.61C45.558 46.83 45.788 47.096 45.96 47.408C46.132 47.72 46.218 48.074 46.218 48.47C46.218 48.95 46.09 49.388 45.834 49.784C45.582 50.18 45.242 50.486 44.814 50.702C45.362 50.922 45.798 51.266 46.122 51.734C46.45 52.198 46.614 52.722 46.614 53.306C46.614 53.858 46.464 54.352 46.164 54.788C45.864 55.224 45.456 55.568 44.94 55.82C44.424 56.068 43.842 56.192 43.194 56.192ZM43.194 54.824C43.534 54.824 43.832 54.752 44.088 54.608C44.344 54.46 44.544 54.258 44.688 54.002C44.832 53.746 44.904 53.46 44.904 53.144C44.904 52.812 44.83 52.52 44.682 52.268C44.534 52.012 44.332 51.812 44.076 51.668C43.82 51.52 43.526 51.446 43.194 51.446C42.874 51.446 42.584 51.518 42.324 51.662C42.068 51.806 41.864 52.006 41.712 52.262C41.564 52.514 41.49 52.806 41.49 53.138C41.49 53.458 41.562 53.746 41.706 54.002C41.85 54.258 42.05 54.46 42.306 54.608C42.566 54.752 42.862 54.824 43.194 54.824ZM43.194 50.114C43.486 50.114 43.744 50.05 43.968 49.922C44.196 49.79 44.374 49.612 44.502 49.388C44.634 49.164 44.7 48.91 44.7 48.626C44.7 48.338 44.634 48.082 44.502 47.858C44.37 47.63 44.19 47.45 43.962 47.318C43.738 47.186 43.482 47.12 43.194 47.12C42.91 47.12 42.654 47.186 42.426 47.318C42.202 47.45 42.024 47.63 41.892 47.858C41.76 48.082 41.694 48.338 41.694 48.626C41.694 48.91 41.758 49.164 41.886 49.388C42.018 49.612 42.198 49.79 42.426 49.922C42.654 50.05 42.91 50.114 43.194 50.114ZM52.2446 56.192C51.4366 56.192 50.7266 55.978 50.1146 55.55C49.5066 55.118 49.0326 54.516 48.6926 53.744C48.3566 52.972 48.1886 52.076 48.1886 51.056C48.1886 50.032 48.3566 49.136 48.6926 48.368C49.0326 47.596 49.5066 46.996 50.1146 46.568C50.7266 46.136 51.4366 45.92 52.2446 45.92C53.0566 45.92 53.7666 46.136 54.3746 46.568C54.9826 46.996 55.4546 47.596 55.7906 48.368C56.1306 49.136 56.3006 50.032 56.3006 51.056C56.3006 52.076 56.1306 52.972 55.7906 53.744C55.4546 54.516 54.9826 55.118 54.3746 55.55C53.7666 55.978 53.0566 56.192 52.2446 56.192ZM52.2446 54.8C52.7326 54.8 53.1546 54.648 53.5106 54.344C53.8706 54.04 54.1486 53.608 54.3446 53.048C54.5446 52.484 54.6446 51.82 54.6446 51.056C54.6446 50.288 54.5446 49.624 54.3446 49.064C54.1486 48.504 53.8706 48.072 53.5106 47.768C53.1546 47.464 52.7326 47.312 52.2446 47.312C51.7606 47.312 51.3386 47.464 50.9786 47.768C50.6186 48.072 50.3386 48.504 50.1386 49.064C49.9426 49.624 49.8446 50.288 49.8446 51.056C49.8446 51.82 49.9426 52.484 50.1386 53.048C50.3386 53.608 50.6186 54.04 50.9786 54.344C51.3386 54.648 51.7606 54.8 52.2446 54.8ZM60.4358 50.648C59.9518 50.648 59.5158 50.548 59.1278 50.348C58.7398 50.148 58.4318 49.87 58.2038 49.514C57.9798 49.158 57.8678 48.748 57.8678 48.284C57.8678 47.82 57.9798 47.41 58.2038 47.054C58.4318 46.698 58.7398 46.42 59.1278 46.22C59.5158 46.02 59.9518 45.92 60.4358 45.92C60.9158 45.92 61.3498 46.02 61.7378 46.22C62.1258 46.42 62.4318 46.698 62.6558 47.054C62.8838 47.41 62.9978 47.82 62.9978 48.284C62.9978 48.748 62.8838 49.158 62.6558 49.514C62.4318 49.87 62.1258 50.148 61.7378 50.348C61.3498 50.548 60.9158 50.648 60.4358 50.648ZM59.9918 56L65.7518 46.1H66.7958L61.0358 56H59.9918ZM60.4358 49.718C60.7038 49.718 60.9458 49.656 61.1618 49.532C61.3778 49.408 61.5498 49.24 61.6778 49.028C61.8058 48.812 61.8698 48.564 61.8698 48.284C61.8698 48.004 61.8058 47.756 61.6778 47.54C61.5498 47.324 61.3778 47.156 61.1618 47.036C60.9458 46.912 60.7038 46.85 60.4358 46.85C60.1638 46.85 59.9198 46.912 59.7038 47.036C59.4878 47.16 59.3158 47.33 59.1878 47.546C59.0638 47.758 59.0018 48.004 59.0018 48.284C59.0018 48.564 59.0638 48.812 59.1878 49.028C59.3158 49.24 59.4878 49.408 59.7038 49.532C59.9198 49.656 60.1638 49.718 60.4358 49.718ZM66.3518 56.186C65.8678 56.186 65.4318 56.086 65.0438 55.886C64.6558 55.686 64.3478 55.408 64.1198 55.052C63.8958 54.696 63.7838 54.286 63.7838 53.822C63.7838 53.358 63.8958 52.948 64.1198 52.592C64.3478 52.236 64.6558 51.958 65.0438 51.758C65.4318 51.558 65.8678 51.458 66.3518 51.458C66.8358 51.458 67.2718 51.558 67.6598 51.758C68.0478 51.958 68.3538 52.236 68.5778 52.592C68.8058 52.948 68.9198 53.358 68.9198 53.822C68.9198 54.286 68.8058 54.696 68.5778 55.052C68.3538 55.408 68.0478 55.686 67.6598 55.886C67.2718 56.086 66.8358 56.186 66.3518 56.186ZM66.3518 55.256C66.6198 55.256 66.8618 55.194 67.0778 55.07C67.2938 54.946 67.4658 54.776 67.5938 54.56C67.7218 54.344 67.7858 54.096 67.7858 53.816C67.7858 53.536 67.7218 53.29 67.5938 53.078C67.4658 52.862 67.2938 52.694 67.0778 52.574C66.8618 52.45 66.6198 52.388 66.3518 52.388C66.0838 52.388 65.8418 52.45 65.6258 52.574C65.4098 52.694 65.2378 52.862 65.1098 53.078C64.9818 53.29 64.9178 53.536 64.9178 53.816C64.9178 54.096 64.9818 54.344 65.1098 54.56C65.2378 54.776 65.4098 54.946 65.6258 55.07C65.8418 55.194 66.0838 55.256 66.3518 55.256Z" fill="#928A97"/>
<path d="M43.4775 120.224C42.4228 120.224 41.5128 119.862 40.7475 119.139L41.3845 117.62C41.9725 118.189 42.5815 118.474 43.2115 118.474C43.8042 118.474 44.2662 118.28 44.5975 117.893C44.9288 117.501 45.0945 116.957 45.0945 116.262V108.45H46.9285V116.752C46.9285 117.849 46.6228 118.703 46.0115 119.314C45.4002 119.921 44.5555 120.224 43.4775 120.224ZM52.8619 120.224C52.3065 120.224 51.8025 120.154 51.3499 120.014C50.8972 119.874 50.4982 119.701 50.1529 119.496C49.8122 119.286 49.5252 119.076 49.2919 118.866C49.0585 118.656 48.8812 118.483 48.7599 118.348L49.7259 116.864C49.8565 116.999 50.0199 117.16 50.2159 117.347C50.4165 117.534 50.6499 117.718 50.9159 117.9C51.1819 118.077 51.4805 118.227 51.8119 118.348C52.1432 118.465 52.5095 118.523 52.9109 118.523C53.2889 118.523 53.6272 118.46 53.9259 118.334C54.2245 118.208 54.4625 118.021 54.6399 117.774C54.8172 117.522 54.9059 117.212 54.9059 116.843C54.9059 116.521 54.8382 116.246 54.7029 116.017C54.5722 115.788 54.3832 115.59 54.1359 115.422C53.8885 115.249 53.5945 115.086 53.2539 114.932C52.9132 114.773 52.5329 114.61 52.1129 114.442C51.8142 114.316 51.5179 114.169 51.2239 114.001C50.9345 113.833 50.6709 113.632 50.4329 113.399C50.1995 113.166 50.0129 112.897 49.8729 112.594C49.7329 112.286 49.6629 111.931 49.6629 111.53C49.6629 111.096 49.7469 110.683 49.9149 110.291C50.0875 109.894 50.3302 109.542 50.6429 109.234C50.9555 108.926 51.3265 108.683 51.7559 108.506C52.1899 108.329 52.6729 108.24 53.2049 108.24C53.6389 108.24 54.0612 108.303 54.4719 108.429C54.8825 108.555 55.2559 108.718 55.5919 108.919C55.9325 109.12 56.2102 109.334 56.4249 109.563L55.6269 110.956C55.4495 110.774 55.2372 110.604 54.9899 110.445C54.7472 110.282 54.4765 110.151 54.1779 110.053C53.8792 109.955 53.5665 109.906 53.2399 109.906C52.8572 109.906 52.5329 109.981 52.2669 110.13C52.0009 110.279 51.7955 110.475 51.6509 110.718C51.5109 110.956 51.4409 111.215 51.4409 111.495C51.4409 111.738 51.4899 111.945 51.5879 112.118C51.6905 112.286 51.8305 112.431 52.0079 112.552C52.1852 112.673 52.3882 112.785 52.6169 112.888C52.8502 112.986 53.0952 113.084 53.3519 113.182C53.8605 113.387 54.3295 113.597 54.7589 113.812C55.1929 114.022 55.5685 114.262 55.8859 114.533C56.2032 114.799 56.4482 115.116 56.6209 115.485C56.7982 115.849 56.8869 116.288 56.8869 116.801C56.8869 117.52 56.7142 118.136 56.3689 118.649C56.0282 119.162 55.5545 119.554 54.9479 119.825C54.3459 120.091 53.6505 120.224 52.8619 120.224Z" fill="#000C24"/>
</svg>
