<svg width="100" height="124" viewBox="0 0 100 124" fill="none" xmlns="http://www.w3.org/2000/svg">
<path d="M100 50C100 77.6142 77.6142 100 50 100C22.3858 100 0 77.6142 0 50C0 22.3858 22.3858 0 50 0C77.6142 0 100 22.3858 100 50ZM14 50C14 69.8822 30.1177 86 50 86C69.8822 86 86 69.8822 86 50C86 30.1177 69.8822 14 50 14C30.1177 14 14 30.1177 14 50Z" fill="#928A97" fill-opacity="0.27"/>
<path d="M50 100C37.4183 100 25.299 95.2566 16.06 86.7161C6.82091 78.1756 1.14128 66.4659 0.154133 53.923C-0.833017 41.38 2.94488 28.9259 10.7342 19.0453C18.5234 9.16465 29.7514 2.5838 42.1783 0.615582C54.6051 -1.35263 67.3172 1.43648 77.7785 8.42652C88.2398 15.4166 95.6814 26.0936 98.6185 38.3277C101.556 50.5618 99.7725 63.4536 93.6248 74.4311C87.4771 85.4086 77.4168 93.6649 65.4508 97.5528L61.1246 84.238C69.7401 81.4387 76.9835 75.4942 81.4099 67.5904C85.8362 59.6866 87.1201 50.4045 85.0053 41.596C82.8906 32.7874 77.5327 25.0999 70.0005 20.0671C62.4684 15.0343 53.3157 13.0261 44.3684 14.4432C35.421 15.8603 27.3369 20.5985 21.7286 27.7126C16.1203 34.8267 13.4002 43.7936 14.111 52.8245C14.8217 61.8554 18.9111 70.2865 25.5632 76.4356C32.2153 82.5848 40.9412 86 50 86L50 100Z" fill="#000C24"/>
<path d="M36.854 53H38.762L41.552 49.64C41.836 49.296 42.078 48.964 42.278 48.644C42.482 48.32 42.636 47.978 42.74 47.618C42.848 47.254 42.9 46.842 42.896 46.382C42.896 45.734 42.74 45.148 42.428 44.624C42.116 44.1 41.68 43.684 41.12 43.376C40.56 43.068 39.908 42.914 39.164 42.914C38.428 42.914 37.794 43.064 37.262 43.364C36.73 43.664 36.318 44.07 36.026 44.582C35.738 45.094 35.594 45.668 35.594 46.304C35.594 46.804 35.68 47.262 35.852 47.678C36.028 48.094 36.266 48.456 36.566 48.764C36.87 49.068 37.216 49.304 37.604 49.472C37.992 49.636 38.4 49.718 38.828 49.718C39.228 49.718 39.574 49.622 39.866 49.43L36.854 53ZM39.236 48.35C38.844 48.35 38.492 48.26 38.18 48.08C37.868 47.896 37.622 47.648 37.442 47.336C37.262 47.024 37.172 46.67 37.172 46.274C37.172 45.882 37.262 45.534 37.442 45.23C37.622 44.926 37.866 44.686 38.174 44.51C38.486 44.334 38.84 44.246 39.236 44.246C39.628 44.246 39.976 44.334 40.28 44.51C40.588 44.682 40.828 44.92 41 45.224C41.176 45.528 41.264 45.878 41.264 46.274C41.264 46.658 41.172 47.008 40.988 47.324C40.808 47.636 40.564 47.886 40.256 48.074C39.952 48.258 39.612 48.35 39.236 48.35ZM47.557 53.186C48.229 53.186 48.837 53.054 49.381 52.79C49.929 52.522 50.363 52.136 50.683 51.632C51.007 51.128 51.169 50.516 51.169 49.796C51.169 49.02 50.963 48.368 50.551 47.84C50.139 47.308 49.595 46.968 48.919 46.82C48.123 46.572 47.299 46.596 46.447 46.892L46.819 44.48H50.533V43.1H45.481L44.653 48.422C45.297 47.89 46.033 47.624 46.861 47.624C47.405 47.624 47.883 47.716 48.295 47.9C48.707 48.08 49.029 48.34 49.261 48.68C49.493 49.016 49.609 49.418 49.609 49.886C49.609 50.482 49.421 50.962 49.045 51.326C48.669 51.69 48.165 51.872 47.533 51.872C47.001 51.872 46.535 51.742 46.135 51.482C45.735 51.218 45.463 50.868 45.319 50.432L44.071 51.038C44.239 51.494 44.495 51.882 44.839 52.202C45.187 52.522 45.595 52.766 46.063 52.934C46.531 53.102 47.029 53.186 47.557 53.186ZM55.2873 47.648C55.7713 47.648 56.2053 47.548 56.5893 47.348C56.9773 47.148 57.2833 46.87 57.5073 46.514C57.7353 46.158 57.8493 45.748 57.8493 45.284C57.8493 44.82 57.7353 44.41 57.5073 44.054C57.2833 43.698 56.9773 43.42 56.5893 43.22C56.2053 43.02 55.7713 42.92 55.2873 42.92C54.8033 42.92 54.3673 43.02 53.9793 43.22C53.5913 43.42 53.2833 43.698 53.0553 44.054C52.8313 44.41 52.7193 44.82 52.7193 45.284C52.7193 45.748 52.8313 46.158 53.0553 46.514C53.2833 46.87 53.5913 47.148 53.9793 47.348C54.3673 47.548 54.8033 47.648 55.2873 47.648ZM54.8433 53H55.8873L61.6473 43.1H60.6033L54.8433 53ZM55.2873 46.718C54.8833 46.718 54.5433 46.584 54.2673 46.316C53.9913 46.048 53.8533 45.704 53.8533 45.284C53.8533 44.864 53.9913 44.52 54.2673 44.252C54.5433 43.984 54.8833 43.85 55.2873 43.85C55.6913 43.85 56.0313 43.984 56.3073 44.252C56.5833 44.516 56.7213 44.86 56.7213 45.284C56.7213 45.704 56.5833 46.048 56.3073 46.316C56.0313 46.584 55.6913 46.718 55.2873 46.718ZM61.2033 53.186C61.6873 53.186 62.1233 53.086 62.5113 52.886C62.8993 52.686 63.2053 52.408 63.4293 52.052C63.6573 51.696 63.7713 51.286 63.7713 50.822C63.7713 50.358 63.6573 49.948 63.4293 49.592C63.2053 49.236 62.8993 48.958 62.5113 48.758C62.1233 48.558 61.6873 48.458 61.2033 48.458C60.7193 48.458 60.2833 48.558 59.8953 48.758C59.5073 48.958 59.1993 49.236 58.9713 49.592C58.7473 49.948 58.6353 50.358 58.6353 50.822C58.6353 51.286 58.7473 51.696 58.9713 52.052C59.1993 52.408 59.5073 52.686 59.8953 52.886C60.2833 53.086 60.7193 53.186 61.2033 53.186ZM61.2033 52.256C60.8033 52.256 60.4633 52.122 60.1833 51.854C59.9073 51.586 59.7693 51.242 59.7693 50.822C59.7693 50.402 59.9073 50.058 60.1833 49.79C60.4633 49.522 60.8033 49.388 61.2033 49.388C61.6073 49.388 61.9473 49.522 62.2233 49.79C62.4993 50.058 62.6373 50.402 62.6373 50.822C62.6373 51.242 62.4993 51.586 62.2233 51.854C61.9473 52.122 61.6073 52.256 61.2033 52.256Z" fill="#928A97"/>
<path d="M24.0679 120H25.9019V115.016H30.9349V120H32.7619V108.45H30.9349V113.406H25.9019V108.45H24.0679V120ZM37.3812 120H39.2082V110.081H42.3582V108.45H34.2382V110.081H37.3812V120ZM43.9126 120H45.7466L46.6636 111.768L49.5406 119.566H50.7096L53.5796 111.768L54.5036 120H56.3306L55.0566 108.45H53.1106L50.1216 116.325L47.1326 108.45H45.1866L43.9126 120ZM59.1225 120H65.3665V118.39H60.9565V108.45H59.1225V120ZM70.4994 120.217C71.2834 120.217 71.9927 120.063 72.6274 119.755C73.2667 119.442 73.7731 118.992 74.1464 118.404C74.5244 117.816 74.7134 117.102 74.7134 116.262C74.7134 115.357 74.4731 114.596 73.9924 113.98C73.5117 113.359 72.8771 112.963 72.0884 112.79C71.1597 112.501 70.1984 112.529 69.2044 112.874L69.6384 110.06H73.9714V108.45H68.0774L67.1114 114.659C67.8627 114.038 68.7214 113.728 69.6874 113.728C70.3221 113.728 70.8797 113.835 71.3604 114.05C71.8411 114.26 72.2167 114.563 72.4874 114.96C72.7581 115.352 72.8934 115.821 72.8934 116.367C72.8934 117.062 72.6741 117.622 72.2354 118.047C71.7967 118.472 71.2087 118.684 70.4714 118.684C69.8507 118.684 69.3071 118.532 68.8404 118.229C68.3737 117.921 68.0564 117.513 67.8884 117.004L66.4324 117.711C66.6284 118.243 66.9271 118.696 67.3284 119.069C67.7344 119.442 68.2104 119.727 68.7564 119.923C69.3024 120.119 69.8834 120.217 70.4994 120.217Z" fill="#000C24"/>
</svg>
