<svg width="100" height="124" viewBox="0 0 100 124" fill="none" xmlns="http://www.w3.org/2000/svg">
<path d="M100 50C100 77.6142 77.6142 100 50 100C22.3858 100 0 77.6142 0 50C0 22.3858 22.3858 0 50 0C77.6142 0 100 22.3858 100 50ZM14 50C14 69.8822 30.1177 86 50 86C69.8822 86 86 69.8822 86 50C86 30.1177 69.8822 14 50 14C30.1177 14 14 30.1177 14 50Z" fill="#928A97" fill-opacity="0.27"/>
<path d="M50 100C37.4998 100 25.453 95.3178 16.2338 86.8761C7.01468 78.4344 1.29192 66.8457 0.193434 54.3939C-0.905047 41.942 2.70044 29.5304 10.2993 19.605C17.8981 9.67971 28.9392 2.9607 41.2463 0.77224C53.5534 -1.41622 66.2339 1.08461 76.7886 7.78186C87.3433 14.4791 95.0065 24.8869 98.2681 36.9541C101.53 49.0213 100.153 61.8725 94.4089 72.9749C88.6651 84.0773 78.9709 92.6256 67.237 96.9349L62.4107 83.7931C70.8591 80.6904 77.8389 74.5357 81.9744 66.542C86.11 58.5482 87.1013 49.2954 84.753 40.607C82.4047 31.9186 76.8872 24.425 69.2878 19.6029C61.6884 14.7809 52.5585 12.9803 43.6973 14.556C34.8362 16.1317 26.8867 20.9694 21.4155 28.1156C15.9443 35.2619 13.3484 44.1983 14.1393 53.1636C14.9302 62.1289 19.0506 70.4728 25.6884 76.5508C32.3262 82.6288 40.9999 86 50 86L50 100Z" fill="#000C24"/>
<path d="M36.854 53L39.866 49.43C39.574 49.622 39.228 49.718 38.828 49.718C38.396 49.718 37.986 49.636 37.598 49.472C37.214 49.304 36.87 49.068 36.566 48.764C36.266 48.456 36.028 48.094 35.852 47.678C35.68 47.262 35.594 46.804 35.594 46.304C35.594 45.668 35.738 45.094 36.026 44.582C36.314 44.07 36.726 43.664 37.262 43.364C37.798 43.064 38.432 42.914 39.164 42.914C39.908 42.914 40.558 43.068 41.114 43.376C41.674 43.684 42.11 44.1 42.422 44.624C42.738 45.148 42.896 45.734 42.896 46.382C42.896 46.73 42.866 47.048 42.806 47.336C42.75 47.62 42.664 47.89 42.548 48.146C42.432 48.398 42.29 48.646 42.122 48.89C41.954 49.134 41.764 49.384 41.552 49.64L38.762 53H36.854ZM39.236 48.35C39.52 48.35 39.784 48.298 40.028 48.194C40.272 48.086 40.486 47.936 40.67 47.744C40.854 47.552 40.998 47.332 41.102 47.084C41.21 46.832 41.264 46.562 41.264 46.274C41.264 45.882 41.176 45.534 41 45.23C40.828 44.922 40.59 44.682 40.286 44.51C39.982 44.334 39.632 44.246 39.236 44.246C38.84 44.246 38.486 44.334 38.174 44.51C37.866 44.686 37.622 44.928 37.442 45.236C37.262 45.54 37.172 45.886 37.172 46.274C37.172 46.666 37.262 47.02 37.442 47.336C37.626 47.648 37.872 47.896 38.18 48.08C38.492 48.26 38.844 48.35 39.236 48.35ZM47.557 53.186C47.029 53.186 46.531 53.102 46.063 52.934C45.595 52.766 45.187 52.522 44.839 52.202C44.495 51.882 44.239 51.494 44.071 51.038L45.319 50.432C45.463 50.872 45.735 51.222 46.135 51.482C46.535 51.742 47.001 51.872 47.533 51.872C47.957 51.872 48.323 51.79 48.631 51.626C48.943 51.458 49.183 51.226 49.351 50.93C49.523 50.63 49.609 50.282 49.609 49.886C49.609 49.418 49.493 49.016 49.261 48.68C49.029 48.34 48.707 48.08 48.295 47.9C47.883 47.716 47.405 47.624 46.861 47.624C46.445 47.624 46.051 47.692 45.679 47.828C45.307 47.964 44.965 48.162 44.653 48.422L45.481 43.1H50.533V44.48H46.819L46.447 46.892C47.303 46.596 48.127 46.572 48.919 46.82C49.371 46.92 49.765 47.106 50.101 47.378C50.437 47.65 50.699 47.992 50.887 48.404C51.075 48.812 51.169 49.276 51.169 49.796C51.169 50.512 51.007 51.124 50.683 51.632C50.359 52.136 49.923 52.522 49.375 52.79C48.831 53.054 48.225 53.186 47.557 53.186ZM55.2873 47.648C54.8033 47.648 54.3673 47.548 53.9793 47.348C53.5913 47.148 53.2833 46.87 53.0553 46.514C52.8313 46.158 52.7193 45.748 52.7193 45.284C52.7193 44.82 52.8313 44.41 53.0553 44.054C53.2833 43.698 53.5913 43.42 53.9793 43.22C54.3673 43.02 54.8033 42.92 55.2873 42.92C55.7673 42.92 56.2013 43.02 56.5893 43.22C56.9773 43.42 57.2833 43.698 57.5073 44.054C57.7353 44.41 57.8493 44.82 57.8493 45.284C57.8493 45.748 57.7353 46.158 57.5073 46.514C57.2833 46.87 56.9773 47.148 56.5893 47.348C56.2013 47.548 55.7673 47.648 55.2873 47.648ZM54.8433 53L60.6033 43.1H61.6473L55.8873 53H54.8433ZM55.2873 46.718C55.5553 46.718 55.7973 46.656 56.0133 46.532C56.2293 46.408 56.4013 46.24 56.5293 46.028C56.6573 45.812 56.7213 45.564 56.7213 45.284C56.7213 45.004 56.6573 44.756 56.5293 44.54C56.4013 44.324 56.2293 44.156 56.0133 44.036C55.7973 43.912 55.5553 43.85 55.2873 43.85C55.0153 43.85 54.7713 43.912 54.5553 44.036C54.3393 44.16 54.1673 44.33 54.0393 44.546C53.9153 44.758 53.8533 45.004 53.8533 45.284C53.8533 45.564 53.9153 45.812 54.0393 46.028C54.1673 46.24 54.3393 46.408 54.5553 46.532C54.7713 46.656 55.0153 46.718 55.2873 46.718ZM61.2033 53.186C60.7193 53.186 60.2833 53.086 59.8953 52.886C59.5073 52.686 59.1993 52.408 58.9713 52.052C58.7473 51.696 58.6353 51.286 58.6353 50.822C58.6353 50.358 58.7473 49.948 58.9713 49.592C59.1993 49.236 59.5073 48.958 59.8953 48.758C60.2833 48.558 60.7193 48.458 61.2033 48.458C61.6873 48.458 62.1233 48.558 62.5113 48.758C62.8993 48.958 63.2053 49.236 63.4293 49.592C63.6573 49.948 63.7713 50.358 63.7713 50.822C63.7713 51.286 63.6573 51.696 63.4293 52.052C63.2053 52.408 62.8993 52.686 62.5113 52.886C62.1233 53.086 61.6873 53.186 61.2033 53.186ZM61.2033 52.256C61.4713 52.256 61.7133 52.194 61.9293 52.07C62.1453 51.946 62.3173 51.776 62.4453 51.56C62.5733 51.344 62.6373 51.096 62.6373 50.816C62.6373 50.536 62.5733 50.29 62.4453 50.078C62.3173 49.862 62.1453 49.694 61.9293 49.574C61.7133 49.45 61.4713 49.388 61.2033 49.388C60.9353 49.388 60.6933 49.45 60.4773 49.574C60.2613 49.694 60.0893 49.862 59.9613 50.078C59.8333 50.29 59.7693 50.536 59.7693 50.816C59.7693 51.096 59.8333 51.344 59.9613 51.56C60.0893 51.776 60.2613 51.946 60.4773 52.07C60.6933 52.194 60.9353 52.256 61.2033 52.256Z" fill="#928A97"/>
<path d="M36.247 120.224C36.9704 120.224 37.6494 120.119 38.284 119.909C38.9234 119.699 39.4694 119.428 39.922 119.097L39.117 117.543C38.767 117.823 38.3517 118.04 37.871 118.194C37.3904 118.348 36.884 118.425 36.352 118.425C35.512 118.425 34.763 118.241 34.105 117.872C33.447 117.499 32.929 116.997 32.551 116.367C32.173 115.732 31.984 115.021 31.984 114.232C31.984 113.443 32.173 112.734 32.551 112.104C32.929 111.469 33.447 110.968 34.105 110.599C34.763 110.226 35.512 110.039 36.352 110.039C36.884 110.039 37.3904 110.116 37.871 110.27C38.3517 110.424 38.767 110.641 39.117 110.921L39.922 109.367C39.4554 109.026 38.9024 108.753 38.263 108.548C37.6237 108.343 36.947 108.24 36.233 108.24C35.365 108.24 34.553 108.394 33.797 108.702C33.0457 109.005 32.383 109.43 31.809 109.976C31.2397 110.522 30.794 111.159 30.472 111.887C30.15 112.61 29.989 113.392 29.989 114.232C29.989 115.072 30.15 115.856 30.472 116.584C30.794 117.307 31.2397 117.942 31.809 118.488C32.383 119.034 33.048 119.461 33.804 119.769C34.56 120.072 35.3744 120.224 36.247 120.224ZM44.9732 120.224C45.7619 120.224 46.4572 120.091 47.0592 119.825C47.6659 119.554 48.1395 119.165 48.4802 118.656C48.8255 118.143 48.9982 117.524 48.9982 116.801C48.9982 116.115 48.8442 115.557 48.5362 115.128C48.2329 114.694 47.8152 114.33 47.2832 114.036C46.7512 113.737 46.1445 113.453 45.4632 113.182C45.1179 113.047 44.7982 112.914 44.5042 112.783C44.2149 112.648 43.9839 112.482 43.8112 112.286C43.6385 112.085 43.5522 111.822 43.5522 111.495C43.5522 111.075 43.7085 110.706 44.0212 110.389C44.3339 110.067 44.7772 109.906 45.3512 109.906C45.8412 109.906 46.2962 110.013 46.7162 110.228C47.1362 110.438 47.4769 110.681 47.7382 110.956L48.5362 109.563C48.3169 109.334 48.0369 109.12 47.6962 108.919C47.3602 108.718 46.9869 108.555 46.5762 108.429C46.1702 108.303 45.7502 108.24 45.3162 108.24C44.6115 108.24 43.9932 108.394 43.4612 108.702C42.9292 109.01 42.5139 109.414 42.2152 109.913C41.9212 110.412 41.7742 110.951 41.7742 111.53C41.7742 112.062 41.8955 112.515 42.1382 112.888C42.3809 113.257 42.6889 113.567 43.0622 113.819C43.4402 114.066 43.8275 114.274 44.2242 114.442C44.7795 114.671 45.2672 114.888 45.6872 115.093C46.1072 115.294 46.4339 115.529 46.6672 115.8C46.9005 116.066 47.0172 116.414 47.0172 116.843C47.0172 117.398 46.8259 117.818 46.4432 118.103C46.0605 118.383 45.5869 118.523 45.0222 118.523C44.4902 118.523 44.0165 118.423 43.6012 118.222C43.1859 118.017 42.8312 117.783 42.5372 117.522C42.2432 117.261 42.0099 117.041 41.8372 116.864L40.8712 118.348C40.9925 118.488 41.1699 118.663 41.4032 118.873C41.6365 119.078 41.9235 119.286 42.2642 119.496C42.6095 119.701 43.0062 119.874 43.4542 120.014C43.9069 120.154 44.4132 120.224 44.9732 120.224ZM54.2564 120.224C55.0451 120.224 55.7404 120.091 56.3424 119.825C56.9491 119.554 57.4227 119.165 57.7634 118.656C58.1087 118.143 58.2814 117.524 58.2814 116.801C58.2814 116.115 58.1274 115.557 57.8194 115.128C57.5161 114.694 57.0984 114.33 56.5664 114.036C56.0344 113.737 55.4277 113.453 54.7464 113.182C54.4011 113.047 54.0814 112.914 53.7874 112.783C53.4981 112.648 53.2671 112.482 53.0944 112.286C52.9217 112.085 52.8354 111.822 52.8354 111.495C52.8354 111.075 52.9917 110.706 53.3044 110.389C53.6171 110.067 54.0604 109.906 54.6344 109.906C55.1244 109.906 55.5794 110.013 55.9994 110.228C56.4194 110.438 56.7601 110.681 57.0214 110.956L57.8194 109.563C57.6001 109.334 57.3201 109.12 56.9794 108.919C56.6434 108.718 56.2701 108.555 55.8594 108.429C55.4534 108.303 55.0334 108.24 54.5994 108.24C53.8947 108.24 53.2764 108.394 52.7444 108.702C52.2124 109.01 51.7971 109.414 51.4984 109.913C51.2044 110.412 51.0574 110.951 51.0574 111.53C51.0574 112.062 51.1787 112.515 51.4214 112.888C51.6641 113.257 51.9721 113.567 52.3454 113.819C52.7234 114.066 53.1107 114.274 53.5074 114.442C54.0627 114.671 54.5504 114.888 54.9704 115.093C55.3904 115.294 55.7171 115.529 55.9504 115.8C56.1837 116.066 56.3004 116.414 56.3004 116.843C56.3004 117.398 56.1091 117.818 55.7264 118.103C55.3437 118.383 54.8701 118.523 54.3054 118.523C53.7734 118.523 53.2997 118.423 52.8844 118.222C52.4691 118.017 52.1144 117.783 51.8204 117.522C51.5264 117.261 51.2931 117.041 51.1204 116.864L50.1544 118.348C50.2757 118.488 50.4531 118.663 50.6864 118.873C50.9197 119.078 51.2067 119.286 51.5474 119.496C51.8927 119.701 52.2894 119.874 52.7374 120.014C53.1901 120.154 53.6964 120.224 54.2564 120.224ZM63.666 120.224C64.4547 120.224 65.143 120.072 65.731 119.769C66.319 119.461 66.7764 119.041 67.103 118.509C67.4297 117.977 67.593 117.375 67.593 116.703C67.593 116.04 67.432 115.469 67.11 114.988C66.788 114.507 66.3704 114.15 65.857 113.917C66.2957 113.679 66.641 113.345 66.893 112.916C67.145 112.482 67.271 112.001 67.271 111.474C67.271 110.858 67.117 110.307 66.809 109.822C66.5057 109.332 66.088 108.947 65.556 108.667C65.0287 108.382 64.429 108.24 63.757 108.24C63.169 108.24 62.6277 108.354 62.133 108.583C61.6384 108.812 61.2254 109.129 60.894 109.535C60.5627 109.936 60.3457 110.403 60.243 110.935L61.72 111.579C61.7527 111.229 61.8624 110.916 62.049 110.641C62.2357 110.361 62.476 110.142 62.77 109.983C63.064 109.82 63.3837 109.738 63.729 109.738C64.0744 109.738 64.387 109.817 64.667 109.976C64.947 110.13 65.1687 110.342 65.332 110.613C65.5 110.879 65.584 111.178 65.584 111.509C65.584 111.845 65.4977 112.158 65.325 112.447C65.157 112.732 64.9307 112.963 64.646 113.14C64.3614 113.317 64.0417 113.406 63.687 113.406H63.211V114.659C63.337 114.612 63.498 114.589 63.694 114.589C64.072 114.589 64.415 114.682 64.723 114.869C65.031 115.056 65.276 115.31 65.458 115.632C65.6447 115.954 65.738 116.316 65.738 116.717C65.738 117.286 65.549 117.746 65.171 118.096C64.7977 118.441 64.2984 118.614 63.673 118.614C63.0057 118.614 62.462 118.423 62.042 118.04C61.622 117.653 61.398 117.153 61.37 116.542L59.648 117.305C59.774 117.888 60.0214 118.399 60.39 118.838C60.7634 119.277 61.23 119.617 61.79 119.86C62.35 120.103 62.9754 120.224 63.666 120.224Z" fill="#000C24"/>
</svg>
