<svg width="100" height="124" viewBox="0 0 100 124" fill="none" xmlns="http://www.w3.org/2000/svg">
<path d="M100 50C100 77.6142 77.6142 100 50 100C22.3858 100 0 77.6142 0 50C0 22.3858 22.3858 0 50 0C77.6142 0 100 22.3858 100 50ZM14 50C14 69.8822 30.1177 86 50 86C69.8822 86 86 69.8822 86 50C86 30.1177 69.8822 14 50 14C30.1177 14 14 30.1177 14 50Z" fill="#928A97" fill-opacity="0.27"/>
<path d="M50 100C38.8432 100 28.0069 96.2685 19.2155 89.3994C10.424 82.5303 4.18259 72.9181 1.48432 62.0925C-1.21396 51.2669 -0.214027 39.8498 4.32499 29.6581C8.86401 19.4663 16.6813 11.0855 26.533 5.84914C36.3846 0.612795 47.7046 -1.17817 58.6915 0.761224C69.6785 2.70062 79.7012 8.25895 87.1647 16.5517C94.6282 24.8445 99.1037 35.3953 99.8791 46.5251C100.654 57.655 97.6851 68.7244 91.4436 77.9719L79.8394 70.1398C84.3333 63.4816 86.4712 55.5116 85.913 47.4981C85.3547 39.4846 82.1323 31.8881 76.7586 25.9173C71.3848 19.9464 64.1685 15.9444 56.2579 14.5481C48.3473 13.1517 40.1969 14.4412 33.1037 18.2114C26.0105 21.9815 20.3821 28.0158 17.114 35.3538C13.8459 42.6919 13.126 50.9122 15.0687 58.7066C17.0115 66.501 21.5053 73.4218 27.8351 78.3676C34.165 83.3133 41.9671 86 50 86L50 100Z" fill="#000C24"/>
<path d="M38.194 53.192C37.554 53.192 36.974 53.068 36.454 52.82C35.938 52.568 35.53 52.224 35.23 51.788C34.93 51.352 34.78 50.856 34.78 50.3C34.78 49.716 34.944 49.192 35.272 48.728C35.6 48.26 36.034 47.918 36.574 47.702C36.138 47.482 35.796 47.172 35.548 46.772C35.3 46.372 35.176 45.94 35.176 45.476C35.176 44.988 35.312 44.552 35.584 44.168C35.856 43.784 36.218 43.48 36.67 43.256C37.126 43.032 37.634 42.92 38.194 42.92C38.57 42.92 38.938 42.98 39.298 43.1C39.658 43.216 39.982 43.386 40.27 43.61C40.558 43.83 40.788 44.096 40.96 44.408C41.132 44.72 41.218 45.074 41.218 45.47C41.218 45.95 41.09 46.388 40.834 46.784C40.582 47.18 40.242 47.486 39.814 47.702C40.362 47.922 40.798 48.266 41.122 48.734C41.45 49.198 41.614 49.722 41.614 50.306C41.614 50.858 41.464 51.352 41.164 51.788C40.864 52.224 40.456 52.568 39.94 52.82C39.424 53.068 38.842 53.192 38.194 53.192ZM38.194 51.824C38.534 51.824 38.832 51.752 39.088 51.608C39.344 51.46 39.544 51.258 39.688 51.002C39.832 50.746 39.904 50.46 39.904 50.144C39.904 49.812 39.83 49.52 39.682 49.268C39.534 49.012 39.332 48.812 39.076 48.668C38.82 48.52 38.526 48.446 38.194 48.446C37.874 48.446 37.584 48.518 37.324 48.662C37.068 48.806 36.864 49.006 36.712 49.262C36.564 49.514 36.49 49.806 36.49 50.138C36.49 50.458 36.562 50.746 36.706 51.002C36.85 51.258 37.05 51.46 37.306 51.608C37.566 51.752 37.862 51.824 38.194 51.824ZM38.194 47.114C38.486 47.114 38.744 47.05 38.968 46.922C39.196 46.79 39.374 46.612 39.502 46.388C39.634 46.164 39.7 45.91 39.7 45.626C39.7 45.338 39.634 45.082 39.502 44.858C39.37 44.63 39.19 44.45 38.962 44.318C38.738 44.186 38.482 44.12 38.194 44.12C37.91 44.12 37.654 44.186 37.426 44.318C37.202 44.45 37.024 44.63 36.892 44.858C36.76 45.082 36.694 45.338 36.694 45.626C36.694 45.91 36.758 46.164 36.886 46.388C37.018 46.612 37.198 46.79 37.426 46.922C37.654 47.05 37.91 47.114 38.194 47.114ZM47.2446 53.192C46.4366 53.192 45.7266 52.978 45.1146 52.55C44.5066 52.118 44.0326 51.516 43.6926 50.744C43.3566 49.972 43.1886 49.076 43.1886 48.056C43.1886 47.032 43.3566 46.136 43.6926 45.368C44.0326 44.596 44.5066 43.996 45.1146 43.568C45.7266 43.136 46.4366 42.92 47.2446 42.92C48.0566 42.92 48.7666 43.136 49.3746 43.568C49.9826 43.996 50.4546 44.596 50.7906 45.368C51.1306 46.136 51.3006 47.032 51.3006 48.056C51.3006 49.076 51.1306 49.972 50.7906 50.744C50.4546 51.516 49.9826 52.118 49.3746 52.55C48.7666 52.978 48.0566 53.192 47.2446 53.192ZM47.2446 51.8C47.7326 51.8 48.1546 51.648 48.5106 51.344C48.8706 51.04 49.1486 50.608 49.3446 50.048C49.5446 49.484 49.6446 48.82 49.6446 48.056C49.6446 47.288 49.5446 46.624 49.3446 46.064C49.1486 45.504 48.8706 45.072 48.5106 44.768C48.1546 44.464 47.7326 44.312 47.2446 44.312C46.7606 44.312 46.3386 44.464 45.9786 44.768C45.6186 45.072 45.3386 45.504 45.1386 46.064C44.9426 46.624 44.8446 47.288 44.8446 48.056C44.8446 48.82 44.9426 49.484 45.1386 50.048C45.3386 50.608 45.6186 51.04 45.9786 51.344C46.3386 51.648 46.7606 51.8 47.2446 51.8ZM55.4358 47.648C54.9518 47.648 54.5158 47.548 54.1278 47.348C53.7398 47.148 53.4318 46.87 53.2038 46.514C52.9798 46.158 52.8678 45.748 52.8678 45.284C52.8678 44.82 52.9798 44.41 53.2038 44.054C53.4318 43.698 53.7398 43.42 54.1278 43.22C54.5158 43.02 54.9518 42.92 55.4358 42.92C55.9158 42.92 56.3498 43.02 56.7378 43.22C57.1258 43.42 57.4318 43.698 57.6558 44.054C57.8838 44.41 57.9978 44.82 57.9978 45.284C57.9978 45.748 57.8838 46.158 57.6558 46.514C57.4318 46.87 57.1258 47.148 56.7378 47.348C56.3498 47.548 55.9158 47.648 55.4358 47.648ZM54.9918 53L60.7518 43.1H61.7958L56.0358 53H54.9918ZM55.4358 46.718C55.7038 46.718 55.9458 46.656 56.1618 46.532C56.3778 46.408 56.5498 46.24 56.6778 46.028C56.8058 45.812 56.8698 45.564 56.8698 45.284C56.8698 45.004 56.8058 44.756 56.6778 44.54C56.5498 44.324 56.3778 44.156 56.1618 44.036C55.9458 43.912 55.7038 43.85 55.4358 43.85C55.1638 43.85 54.9198 43.912 54.7038 44.036C54.4878 44.16 54.3158 44.33 54.1878 44.546C54.0638 44.758 54.0018 45.004 54.0018 45.284C54.0018 45.564 54.0638 45.812 54.1878 46.028C54.3158 46.24 54.4878 46.408 54.7038 46.532C54.9198 46.656 55.1638 46.718 55.4358 46.718ZM61.3518 53.186C60.8678 53.186 60.4318 53.086 60.0438 52.886C59.6558 52.686 59.3478 52.408 59.1198 52.052C58.8958 51.696 58.7838 51.286 58.7838 50.822C58.7838 50.358 58.8958 49.948 59.1198 49.592C59.3478 49.236 59.6558 48.958 60.0438 48.758C60.4318 48.558 60.8678 48.458 61.3518 48.458C61.8358 48.458 62.2718 48.558 62.6598 48.758C63.0478 48.958 63.3538 49.236 63.5778 49.592C63.8058 49.948 63.9198 50.358 63.9198 50.822C63.9198 51.286 63.8058 51.696 63.5778 52.052C63.3538 52.408 63.0478 52.686 62.6598 52.886C62.2718 53.086 61.8358 53.186 61.3518 53.186ZM61.3518 52.256C61.6198 52.256 61.8618 52.194 62.0778 52.07C62.2938 51.946 62.4658 51.776 62.5938 51.56C62.7218 51.344 62.7858 51.096 62.7858 50.816C62.7858 50.536 62.7218 50.29 62.5938 50.078C62.4658 49.862 62.2938 49.694 62.0778 49.574C61.8618 49.45 61.6198 49.388 61.3518 49.388C61.0838 49.388 60.8418 49.45 60.6258 49.574C60.4098 49.694 60.2378 49.862 60.1098 50.078C59.9818 50.29 59.9178 50.536 59.9178 50.816C59.9178 51.096 59.9818 51.344 60.1098 51.56C60.2378 51.776 60.4098 51.946 60.6258 52.07C60.8418 52.194 61.0838 52.256 61.3518 52.256Z" fill="#928A97"/>
<path d="M34.8679 120.224C34.0699 120.224 33.3279 120.072 32.6419 119.769C31.9559 119.461 31.3539 119.036 30.8359 118.495C30.3226 117.949 29.9213 117.312 29.6319 116.584C29.3473 115.856 29.2049 115.072 29.2049 114.232C29.2049 113.434 29.3379 112.676 29.6039 111.957C29.8699 111.234 30.2549 110.594 30.7589 110.039C31.2629 109.484 31.8719 109.045 32.5859 108.723C33.3046 108.401 34.1119 108.24 35.0079 108.24C35.5493 108.24 36.0789 108.303 36.5969 108.429C37.1149 108.555 37.6026 108.735 38.0599 108.968C38.5219 109.201 38.9373 109.484 39.3059 109.815L38.4239 111.229C38.0039 110.809 37.4906 110.48 36.8839 110.242C36.2773 109.999 35.6566 109.878 35.0219 109.878C34.4106 109.878 33.8669 109.988 33.3909 110.207C32.9149 110.426 32.5113 110.734 32.1799 111.131C31.8533 111.523 31.6036 111.978 31.4309 112.496C31.2629 113.009 31.1789 113.562 31.1789 114.155C31.1789 114.794 31.2746 115.382 31.4659 115.919C31.6573 116.451 31.9233 116.915 32.2639 117.312C32.6093 117.704 33.0106 118.007 33.4679 118.222C33.9253 118.432 34.4176 118.537 34.9449 118.537C35.3743 118.537 35.7896 118.467 36.1909 118.327C36.5923 118.187 36.9516 117.986 37.2689 117.725C37.5863 117.464 37.8383 117.153 38.0249 116.794C38.2116 116.435 38.3049 116.038 38.3049 115.604V115.352H34.8329V113.917H40.1739V115.408C40.1739 116.155 40.0246 116.824 39.7259 117.417C39.4273 118.01 39.0236 118.516 38.5149 118.936C38.0109 119.351 37.4439 119.671 36.8139 119.895C36.1839 120.114 35.5353 120.224 34.8679 120.224ZM46.7774 120.224C45.3728 120.224 44.3134 119.86 43.5994 119.132C42.8854 118.404 42.5284 117.324 42.5284 115.891V108.45H44.3554V115.394C44.3554 116.444 44.5491 117.212 44.9364 117.697C45.3284 118.182 45.9421 118.425 46.7774 118.425C47.6128 118.425 48.2241 118.182 48.6114 117.697C49.0034 117.212 49.1994 116.444 49.1994 115.394V108.45H51.0334V115.891C51.0334 117.324 50.6764 118.404 49.9624 119.132C49.2484 119.86 48.1868 120.224 46.7774 120.224ZM54.2222 120V108.45H56.0562V118.39H60.4662V120H54.2222ZM62.603 120V108.45H66.201C66.9523 108.45 67.6127 108.581 68.182 108.842C68.756 109.103 69.204 109.486 69.526 109.99C69.848 110.494 70.009 111.117 70.009 111.859C70.009 112.592 69.848 113.224 69.526 113.756C69.204 114.283 68.756 114.692 68.182 114.981C67.6127 115.266 66.9523 115.408 66.201 115.408H64.437V120H62.603ZM64.437 113.924H65.662C66.124 113.924 66.537 113.849 66.901 113.7C67.2697 113.551 67.5613 113.329 67.776 113.035C67.9907 112.736 68.098 112.361 68.098 111.908C68.098 111.455 67.9907 111.082 67.776 110.788C67.5613 110.494 67.2697 110.277 66.901 110.137C66.537 109.992 66.124 109.92 65.662 109.92H64.437V113.924Z" fill="#000C24"/>
</svg>
