<svg width="100" height="124" viewBox="0 0 100 124" fill="none" xmlns="http://www.w3.org/2000/svg">
<path d="M100 50C100 77.6142 77.6142 100 50 100C22.3858 100 0 77.6142 0 50C0 22.3858 22.3858 0 50 0C77.6142 0 100 22.3858 100 50ZM14 50C14 69.8822 30.1177 86 50 86C69.8822 86 86 69.8822 86 50C86 30.1177 69.8822 14 50 14C30.1177 14 14 30.1177 14 50Z" fill="#928A97" fill-opacity="0.27"/>
<path d="M50 100C38.0948 100 26.5803 95.7521 17.5276 88.0203C8.47484 80.2885 2.47796 69.5803 0.615583 57.8217C-1.24679 46.0631 1.14757 34.0259 7.36799 23.8751C13.5884 13.7243 23.2267 6.12607 34.5492 2.44717C45.8716 -1.23172 58.1352 -0.749882 69.1342 3.80602C80.1331 8.36193 89.1455 16.6929 94.5503 27.3005C99.9552 37.9081 101.398 50.0961 98.6185 61.6723C95.8393 73.2485 89.0207 83.4532 79.3893 90.4509L71.1603 79.1246C78.0949 74.0863 83.0043 66.7389 85.0053 58.404C87.0063 50.0692 85.9677 41.2938 82.0762 33.6563C78.1848 26.0189 71.6958 20.0206 63.7766 16.7403C55.8574 13.4601 47.0276 13.1132 38.8754 15.762C30.7232 18.4108 23.7837 23.8815 19.305 31.1901C14.8262 38.4986 13.1023 47.1655 14.4432 55.6316C15.7841 64.0978 20.1019 71.8077 26.6199 77.3746C33.1379 82.9415 41.4283 86 50 86L50 100Z" fill="#000C24"/>
<path d="M44.6471 53.192C44.0071 53.192 43.4271 53.068 42.9071 52.82C42.3911 52.568 41.9831 52.224 41.6831 51.788C41.3831 51.352 41.2331 50.856 41.2331 50.3C41.2331 49.716 41.3971 49.192 41.7251 48.728C42.0531 48.26 42.4871 47.918 43.0271 47.702C42.5911 47.482 42.2491 47.172 42.0011 46.772C41.7531 46.372 41.6291 45.94 41.6291 45.476C41.6291 44.988 41.7651 44.552 42.0371 44.168C42.3091 43.784 42.6711 43.48 43.1231 43.256C43.5791 43.032 44.0871 42.92 44.6471 42.92C45.0231 42.92 45.3911 42.98 45.7511 43.1C46.1111 43.216 46.4351 43.386 46.7231 43.61C47.0111 43.83 47.2411 44.096 47.4131 44.408C47.5851 44.72 47.6711 45.074 47.6711 45.47C47.6711 45.95 47.5431 46.388 47.2871 46.784C47.0351 47.18 46.6951 47.486 46.2671 47.702C46.8151 47.922 47.2511 48.266 47.5751 48.734C47.9031 49.198 48.0671 49.722 48.0671 50.306C48.0671 50.858 47.9171 51.352 47.6171 51.788C47.3171 52.224 46.9091 52.568 46.3931 52.82C45.8771 53.068 45.2951 53.192 44.6471 53.192ZM44.6471 51.824C44.9871 51.824 45.2851 51.752 45.5411 51.608C45.7971 51.46 45.9971 51.258 46.1411 51.002C46.2851 50.746 46.3571 50.46 46.3571 50.144C46.3571 49.812 46.2831 49.52 46.1351 49.268C45.9871 49.012 45.7851 48.812 45.5291 48.668C45.2731 48.52 44.9791 48.446 44.6471 48.446C44.3271 48.446 44.0371 48.518 43.7771 48.662C43.5211 48.806 43.3171 49.006 43.1651 49.262C43.0171 49.514 42.9431 49.806 42.9431 50.138C42.9431 50.458 43.0151 50.746 43.1591 51.002C43.3031 51.258 43.5031 51.46 43.7591 51.608C44.0191 51.752 44.3151 51.824 44.6471 51.824ZM44.6471 47.114C44.9391 47.114 45.1971 47.05 45.4211 46.922C45.6491 46.79 45.8271 46.612 45.9551 46.388C46.0871 46.164 46.1531 45.91 46.1531 45.626C46.1531 45.338 46.0871 45.082 45.9551 44.858C45.8231 44.63 45.6431 44.45 45.4151 44.318C45.1911 44.186 44.9351 44.12 44.6471 44.12C44.3631 44.12 44.1071 44.186 43.8791 44.318C43.6551 44.45 43.4771 44.63 43.3451 44.858C43.2131 45.082 43.1471 45.338 43.1471 45.626C43.1471 45.91 43.2111 46.164 43.3391 46.388C43.4711 46.612 43.6511 46.79 43.8791 46.922C44.1071 47.05 44.3631 47.114 44.6471 47.114ZM53.6978 53.192C52.8898 53.192 52.1798 52.978 51.5678 52.55C50.9598 52.118 50.4858 51.516 50.1458 50.744C49.8098 49.972 49.6418 49.076 49.6418 48.056C49.6418 47.032 49.8098 46.136 50.1458 45.368C50.4858 44.596 50.9598 43.996 51.5678 43.568C52.1798 43.136 52.8898 42.92 53.6978 42.92C54.5098 42.92 55.2198 43.136 55.8278 43.568C56.4358 43.996 56.9078 44.596 57.2438 45.368C57.5838 46.136 57.7538 47.032 57.7538 48.056C57.7538 49.076 57.5838 49.972 57.2438 50.744C56.9078 51.516 56.4358 52.118 55.8278 52.55C55.2198 52.978 54.5098 53.192 53.6978 53.192ZM53.6978 51.8C54.1858 51.8 54.6078 51.648 54.9638 51.344C55.3238 51.04 55.6018 50.608 55.7978 50.048C55.9978 49.484 56.0978 48.82 56.0978 48.056C56.0978 47.288 55.9978 46.624 55.7978 46.064C55.6018 45.504 55.3238 45.072 54.9638 44.768C54.6078 44.464 54.1858 44.312 53.6978 44.312C53.2138 44.312 52.7918 44.464 52.4318 44.768C52.0718 45.072 51.7918 45.504 51.5918 46.064C51.3958 46.624 51.2978 47.288 51.2978 48.056C51.2978 48.82 51.3958 49.484 51.5918 50.048C51.7918 50.608 52.0718 51.04 52.4318 51.344C52.7918 51.648 53.2138 51.8 53.6978 51.8Z" fill="#928A97"/>
<path d="M37.8912 120.224C38.6798 120.224 39.3752 120.091 39.9772 119.825C40.5838 119.554 41.0575 119.165 41.3982 118.656C41.7435 118.143 41.9162 117.524 41.9162 116.801C41.9162 116.115 41.7622 115.557 41.4542 115.128C41.1508 114.694 40.7332 114.33 40.2012 114.036C39.6692 113.737 39.0625 113.453 38.3812 113.182C38.0358 113.047 37.7162 112.914 37.4222 112.783C37.1328 112.648 36.9018 112.482 36.7292 112.286C36.5565 112.085 36.4702 111.822 36.4702 111.495C36.4702 111.075 36.6265 110.706 36.9392 110.389C37.2518 110.067 37.6952 109.906 38.2692 109.906C38.7592 109.906 39.2142 110.013 39.6342 110.228C40.0542 110.438 40.3948 110.681 40.6562 110.956L41.4542 109.563C41.2348 109.334 40.9548 109.12 40.6142 108.919C40.2782 108.718 39.9048 108.555 39.4942 108.429C39.0882 108.303 38.6682 108.24 38.2342 108.24C37.5295 108.24 36.9112 108.394 36.3792 108.702C35.8472 109.01 35.4318 109.414 35.1332 109.913C34.8392 110.412 34.6922 110.951 34.6922 111.53C34.6922 112.062 34.8135 112.515 35.0562 112.888C35.2988 113.257 35.6068 113.567 35.9802 113.819C36.3582 114.066 36.7455 114.274 37.1422 114.442C37.6975 114.671 38.1852 114.888 38.6052 115.093C39.0252 115.294 39.3518 115.529 39.5852 115.8C39.8185 116.066 39.9352 116.414 39.9352 116.843C39.9352 117.398 39.7438 117.818 39.3612 118.103C38.9785 118.383 38.5048 118.523 37.9402 118.523C37.4082 118.523 36.9345 118.423 36.5192 118.222C36.1038 118.017 35.7492 117.783 35.4552 117.522C35.1612 117.261 34.9278 117.041 34.7552 116.864L33.7892 118.348C33.9105 118.488 34.0878 118.663 34.3212 118.873C34.5545 119.078 34.8415 119.286 35.1822 119.496C35.5275 119.701 35.9242 119.874 36.3722 120.014C36.8248 120.154 37.3312 120.224 37.8912 120.224ZM54.8818 120.378L55.6938 118.74C55.3998 118.647 55.0988 118.535 54.7908 118.404C54.4828 118.273 54.1701 118.126 53.8528 117.963C54.2868 117.464 54.6205 116.894 54.8538 116.255C55.0918 115.611 55.2108 114.939 55.2108 114.239C55.2108 113.404 55.0591 112.624 54.7558 111.901C54.4571 111.173 54.0418 110.536 53.5098 109.99C52.9778 109.439 52.3595 109.01 51.6548 108.702C50.9501 108.394 50.1941 108.24 49.3868 108.24C48.5748 108.24 47.8165 108.396 47.1118 108.709C46.4071 109.017 45.7888 109.446 45.2568 109.997C44.7248 110.543 44.3095 111.18 44.0108 111.908C43.7121 112.636 43.5628 113.418 43.5628 114.253C43.5628 115.093 43.7098 115.875 44.0038 116.598C44.3025 117.321 44.7155 117.956 45.2428 118.502C45.7701 119.043 46.3861 119.466 47.0908 119.769C47.7955 120.072 48.5561 120.224 49.3728 120.224C50.5908 120.224 51.6781 119.89 52.6348 119.223C53.0128 119.461 53.3885 119.678 53.7618 119.874C54.1398 120.065 54.5131 120.233 54.8818 120.378ZM49.3658 118.46C48.6238 118.46 47.9635 118.28 47.3848 117.921C46.8108 117.557 46.3581 117.06 46.0268 116.43C45.6955 115.795 45.5298 115.07 45.5298 114.253C45.5298 113.436 45.6955 112.708 46.0268 112.069C46.3628 111.43 46.8225 110.926 47.4058 110.557C47.9891 110.188 48.6495 110.004 49.3868 110.004C50.1241 110.004 50.7821 110.188 51.3608 110.557C51.9395 110.921 52.3945 111.423 52.7258 112.062C53.0618 112.697 53.2298 113.422 53.2298 114.239C53.2298 115.354 52.8775 116.29 52.1728 117.046C51.7948 116.789 51.4285 116.514 51.0738 116.22C50.7191 115.921 50.3808 115.604 50.0588 115.268L49.2678 116.234C49.5291 116.547 49.8091 116.85 50.1078 117.144C50.4065 117.438 50.7191 117.718 51.0458 117.984C50.5465 118.301 49.9865 118.46 49.3658 118.46ZM58.063 120H64.307V118.39H59.897V108.45H58.063V120Z" fill="#000C24"/>
</svg>
