<svg width="100" height="124" viewBox="0 0 100 124" fill="none" xmlns="http://www.w3.org/2000/svg">
<path d="M100 50C100 77.6142 77.6142 100 50 100C22.3858 100 0 77.6142 0 50C0 22.3858 22.3858 0 50 0C77.6142 0 100 22.3858 100 50ZM14 50C14 69.8822 30.1177 86 50 86C69.8822 86 86 69.8822 86 50C86 30.1177 69.8822 14 50 14C30.1177 14 14 30.1177 14 50Z" fill="#928A97" fill-opacity="0.27"/>
<path d="M50 100C40.7789 100 31.7374 97.45 23.8751 92.632C16.0128 87.814 9.63597 80.9156 5.44967 72.6995C1.26337 64.4834 -0.569347 55.2697 0.154133 46.077C0.877614 36.8843 4.12911 28.0708 9.54915 20.6107C14.9692 13.1507 22.3466 7.33479 30.8658 3.80602C39.385 0.277254 48.7141 -0.826918 57.8217 0.615583C66.9293 2.05808 75.4606 5.99107 82.4724 11.9797C89.4842 17.9683 94.7033 25.7793 97.5528 34.5492L84.238 38.8754C82.1864 32.5611 78.4286 26.9372 73.3801 22.6254C68.3316 18.3136 62.1891 15.4818 55.6316 14.4432C49.0742 13.4046 42.3572 14.1996 36.2234 16.7403C30.0896 19.281 24.7778 23.4685 20.8754 28.8397C16.973 34.211 14.6319 40.5567 14.111 47.1755C13.5901 53.7942 14.9096 60.4281 17.9238 66.3437C20.9379 72.2592 25.5292 77.2261 31.1901 80.695C36.8509 84.164 43.3608 86 50 86L50 100Z" fill="#000C24"/>
<path d="M34.8971 53L39.6671 44.48H35.0951V43.1H41.9891V43.574L36.7571 53H34.8971ZM47.1001 53.192C46.2921 53.192 45.5821 52.978 44.9701 52.55C44.3621 52.118 43.8881 51.516 43.5481 50.744C43.2121 49.972 43.0441 49.076 43.0441 48.056C43.0441 47.032 43.2121 46.136 43.5481 45.368C43.8881 44.596 44.3621 43.996 44.9701 43.568C45.5821 43.136 46.2921 42.92 47.1001 42.92C47.9121 42.92 48.6221 43.136 49.2301 43.568C49.8381 43.996 50.3101 44.596 50.6461 45.368C50.9861 46.136 51.1561 47.032 51.1561 48.056C51.1561 49.076 50.9861 49.972 50.6461 50.744C50.3101 51.516 49.8381 52.118 49.2301 52.55C48.6221 52.978 47.9121 53.192 47.1001 53.192ZM47.1001 51.8C47.5881 51.8 48.0101 51.648 48.3661 51.344C48.7261 51.04 49.0041 50.608 49.2001 50.048C49.4001 49.484 49.5001 48.82 49.5001 48.056C49.5001 47.288 49.4001 46.624 49.2001 46.064C49.0041 45.504 48.7261 45.072 48.3661 44.768C48.0101 44.464 47.5881 44.312 47.1001 44.312C46.6161 44.312 46.1941 44.464 45.8341 44.768C45.4741 45.072 45.1941 45.504 44.9941 46.064C44.7981 46.624 44.7001 47.288 44.7001 48.056C44.7001 48.82 44.7981 49.484 44.9941 50.048C45.1941 50.608 45.4741 51.04 45.8341 51.344C46.1941 51.648 46.6161 51.8 47.1001 51.8ZM55.2912 47.648C54.8072 47.648 54.3712 47.548 53.9832 47.348C53.5952 47.148 53.2872 46.87 53.0592 46.514C52.8352 46.158 52.7232 45.748 52.7232 45.284C52.7232 44.82 52.8352 44.41 53.0592 44.054C53.2872 43.698 53.5952 43.42 53.9832 43.22C54.3712 43.02 54.8072 42.92 55.2912 42.92C55.7712 42.92 56.2052 43.02 56.5932 43.22C56.9812 43.42 57.2872 43.698 57.5112 44.054C57.7392 44.41 57.8532 44.82 57.8532 45.284C57.8532 45.748 57.7392 46.158 57.5112 46.514C57.2872 46.87 56.9812 47.148 56.5932 47.348C56.2052 47.548 55.7712 47.648 55.2912 47.648ZM54.8472 53L60.6072 43.1H61.6512L55.8912 53H54.8472ZM55.2912 46.718C55.5592 46.718 55.8012 46.656 56.0172 46.532C56.2332 46.408 56.4052 46.24 56.5332 46.028C56.6612 45.812 56.7252 45.564 56.7252 45.284C56.7252 45.004 56.6612 44.756 56.5332 44.54C56.4052 44.324 56.2332 44.156 56.0172 44.036C55.8012 43.912 55.5592 43.85 55.2912 43.85C55.0192 43.85 54.7752 43.912 54.5592 44.036C54.3432 44.16 54.1712 44.33 54.0432 44.546C53.9192 44.758 53.8572 45.004 53.8572 45.284C53.8572 45.564 53.9192 45.812 54.0432 46.028C54.1712 46.24 54.3432 46.408 54.5592 46.532C54.7752 46.656 55.0192 46.718 55.2912 46.718ZM61.2072 53.186C60.7232 53.186 60.2872 53.086 59.8992 52.886C59.5112 52.686 59.2032 52.408 58.9752 52.052C58.7512 51.696 58.6392 51.286 58.6392 50.822C58.6392 50.358 58.7512 49.948 58.9752 49.592C59.2032 49.236 59.5112 48.958 59.8992 48.758C60.2872 48.558 60.7232 48.458 61.2072 48.458C61.6912 48.458 62.1272 48.558 62.5152 48.758C62.9032 48.958 63.2092 49.236 63.4332 49.592C63.6612 49.948 63.7752 50.358 63.7752 50.822C63.7752 51.286 63.6612 51.696 63.4332 52.052C63.2092 52.408 62.9032 52.686 62.5152 52.886C62.1272 53.086 61.6912 53.186 61.2072 53.186ZM61.2072 52.256C61.4752 52.256 61.7172 52.194 61.9332 52.07C62.1492 51.946 62.3212 51.776 62.4492 51.56C62.5772 51.344 62.6412 51.096 62.6412 50.816C62.6412 50.536 62.5772 50.29 62.4492 50.078C62.3212 49.862 62.1492 49.694 61.9332 49.574C61.7172 49.45 61.4752 49.388 61.2072 49.388C60.9392 49.388 60.6972 49.45 60.4812 49.574C60.2652 49.694 60.0932 49.862 59.9652 50.078C59.8372 50.29 59.7732 50.536 59.7732 50.816C59.7732 51.096 59.8372 51.344 59.9652 51.56C60.0932 51.776 60.2652 51.946 60.4812 52.07C60.6972 52.194 60.9392 52.256 61.2072 52.256Z" fill="#928A97"/>
<path d="M34.8618 120V108.45H38.4598C39.2111 108.45 39.8715 108.581 40.4408 108.842C41.0148 109.103 41.4628 109.486 41.7848 109.99C42.1068 110.494 42.2678 111.117 42.2678 111.859C42.2678 112.592 42.1068 113.224 41.7848 113.756C41.4628 114.283 41.0148 114.692 40.4408 114.981C39.8715 115.266 39.2111 115.408 38.4598 115.408H36.6958V120H34.8618ZM36.6958 113.924H37.9208C38.3828 113.924 38.7958 113.849 39.1598 113.7C39.5285 113.551 39.8201 113.329 40.0348 113.035C40.2495 112.736 40.3568 112.361 40.3568 111.908C40.3568 111.455 40.2495 111.082 40.0348 110.788C39.8201 110.494 39.5285 110.277 39.1598 110.137C38.7958 109.992 38.3828 109.92 37.9208 109.92H36.6958V113.924ZM44.6509 120V108.45H46.4849V113.406H51.5179V108.45H53.3449V120H51.5179V115.016H46.4849V120H44.6509ZM56.7231 120V108.45H60.3211C61.0725 108.45 61.7328 108.581 62.3021 108.842C62.8761 109.103 63.3241 109.486 63.6461 109.99C63.9681 110.494 64.1291 111.117 64.1291 111.859C64.1291 112.592 63.9681 113.224 63.6461 113.756C63.3241 114.283 62.8761 114.692 62.3021 114.981C61.7328 115.266 61.0725 115.408 60.3211 115.408H58.5571V120H56.7231ZM58.5571 113.924H59.7821C60.2441 113.924 60.6571 113.849 61.0211 113.7C61.3898 113.551 61.6815 113.329 61.8961 113.035C62.1108 112.736 62.2181 112.361 62.2181 111.908C62.2181 111.455 62.1108 111.082 61.8961 110.788C61.6815 110.494 61.3898 110.277 61.0211 110.137C60.6571 109.992 60.2441 109.92 59.7821 109.92H58.5571V113.924Z" fill="#000C24"/>
</svg>
