<svg width="100" height="124" viewBox="0 0 100 124" fill="none" xmlns="http://www.w3.org/2000/svg">
<path d="M100 50C100 77.6142 77.6142 100 50 100C22.3858 100 0 77.6142 0 50C0 22.3858 22.3858 0 50 0C77.6142 0 100 22.3858 100 50ZM14 50C14 69.8822 30.1177 86 50 86C69.8822 86 86 69.8822 86 50C86 30.1177 69.8822 14 50 14C30.1177 14 14 30.1177 14 50Z" fill="#928A97" fill-opacity="0.27"/>
<path d="M50 100C36.7392 100 24.0215 94.7322 14.6447 85.3553C5.26784 75.9785 -3.68891e-07 63.2608 0 50C3.68891e-07 36.7392 5.26784 24.0215 14.6447 14.6447C24.0215 5.26784 36.7392 -1.58134e-07 50 0V14C40.4522 14 31.2955 17.7928 24.5442 24.5442C17.7928 31.2955 14 40.4522 14 50C14 59.5478 17.7928 68.7045 24.5442 75.4558C31.2955 82.2072 40.4522 86 50 86L50 100Z" fill="#000C24"/>
<path d="M38.1624 53.186C37.6344 53.186 37.1364 53.102 36.6684 52.934C36.2004 52.766 35.7924 52.522 35.4444 52.202C35.1004 51.882 34.8444 51.494 34.6764 51.038L35.9244 50.432C36.0684 50.872 36.3404 51.222 36.7404 51.482C37.1404 51.742 37.6064 51.872 38.1384 51.872C38.5624 51.872 38.9284 51.79 39.2364 51.626C39.5484 51.458 39.7884 51.226 39.9564 50.93C40.1284 50.63 40.2144 50.282 40.2144 49.886C40.2144 49.418 40.0984 49.016 39.8664 48.68C39.6344 48.34 39.3124 48.08 38.9004 47.9C38.4884 47.716 38.0104 47.624 37.4664 47.624C37.0504 47.624 36.6564 47.692 36.2844 47.828C35.9124 47.964 35.5704 48.162 35.2584 48.422L36.0864 43.1H41.1384V44.48H37.4244L37.0524 46.892C37.9084 46.596 38.7324 46.572 39.5244 46.82C39.9764 46.92 40.3704 47.106 40.7064 47.378C41.0424 47.65 41.3044 47.992 41.4924 48.404C41.6804 48.812 41.7744 49.276 41.7744 49.796C41.7744 50.512 41.6124 51.124 41.2884 51.632C40.9644 52.136 40.5284 52.522 39.9804 52.79C39.4364 53.054 38.8304 53.186 38.1624 53.186ZM47.4048 53.192C46.5968 53.192 45.8868 52.978 45.2748 52.55C44.6668 52.118 44.1928 51.516 43.8528 50.744C43.5168 49.972 43.3488 49.076 43.3488 48.056C43.3488 47.032 43.5168 46.136 43.8528 45.368C44.1928 44.596 44.6668 43.996 45.2748 43.568C45.8868 43.136 46.5968 42.92 47.4048 42.92C48.2168 42.92 48.9268 43.136 49.5348 43.568C50.1428 43.996 50.6148 44.596 50.9508 45.368C51.2908 46.136 51.4608 47.032 51.4608 48.056C51.4608 49.076 51.2908 49.972 50.9508 50.744C50.6148 51.516 50.1428 52.118 49.5348 52.55C48.9268 52.978 48.2168 53.192 47.4048 53.192ZM47.4048 51.8C47.8928 51.8 48.3148 51.648 48.6708 51.344C49.0308 51.04 49.3088 50.608 49.5048 50.048C49.7048 49.484 49.8048 48.82 49.8048 48.056C49.8048 47.288 49.7048 46.624 49.5048 46.064C49.3088 45.504 49.0308 45.072 48.6708 44.768C48.3148 44.464 47.8928 44.312 47.4048 44.312C46.9208 44.312 46.4988 44.464 46.1388 44.768C45.7788 45.072 45.4988 45.504 45.2988 46.064C45.1028 46.624 45.0048 47.288 45.0048 48.056C45.0048 48.82 45.1028 49.484 45.2988 50.048C45.4988 50.608 45.7788 51.04 46.1388 51.344C46.4988 51.648 46.9208 51.8 47.4048 51.8ZM55.5959 47.648C55.1119 47.648 54.6759 47.548 54.2879 47.348C53.8999 47.148 53.5919 46.87 53.3639 46.514C53.1399 46.158 53.0279 45.748 53.0279 45.284C53.0279 44.82 53.1399 44.41 53.3639 44.054C53.5919 43.698 53.8999 43.42 54.2879 43.22C54.6759 43.02 55.1119 42.92 55.5959 42.92C56.0759 42.92 56.5099 43.02 56.8979 43.22C57.2859 43.42 57.5919 43.698 57.8159 44.054C58.0439 44.41 58.1579 44.82 58.1579 45.284C58.1579 45.748 58.0439 46.158 57.8159 46.514C57.5919 46.87 57.2859 47.148 56.8979 47.348C56.5099 47.548 56.0759 47.648 55.5959 47.648ZM55.1519 53L60.9119 43.1H61.9559L56.1959 53H55.1519ZM55.5959 46.718C55.8639 46.718 56.1059 46.656 56.3219 46.532C56.5379 46.408 56.7099 46.24 56.8379 46.028C56.9659 45.812 57.0299 45.564 57.0299 45.284C57.0299 45.004 56.9659 44.756 56.8379 44.54C56.7099 44.324 56.5379 44.156 56.3219 44.036C56.1059 43.912 55.8639 43.85 55.5959 43.85C55.3239 43.85 55.0799 43.912 54.8639 44.036C54.6479 44.16 54.4759 44.33 54.3479 44.546C54.2239 44.758 54.1619 45.004 54.1619 45.284C54.1619 45.564 54.2239 45.812 54.3479 46.028C54.4759 46.24 54.6479 46.408 54.8639 46.532C55.0799 46.656 55.3239 46.718 55.5959 46.718ZM61.5119 53.186C61.0279 53.186 60.5919 53.086 60.2039 52.886C59.8159 52.686 59.5079 52.408 59.2799 52.052C59.0559 51.696 58.9439 51.286 58.9439 50.822C58.9439 50.358 59.0559 49.948 59.2799 49.592C59.5079 49.236 59.8159 48.958 60.2039 48.758C60.5919 48.558 61.0279 48.458 61.5119 48.458C61.9959 48.458 62.4319 48.558 62.8199 48.758C63.2079 48.958 63.5139 49.236 63.7379 49.592C63.9659 49.948 64.0799 50.358 64.0799 50.822C64.0799 51.286 63.9659 51.696 63.7379 52.052C63.5139 52.408 63.2079 52.686 62.8199 52.886C62.4319 53.086 61.9959 53.186 61.5119 53.186ZM61.5119 52.256C61.7799 52.256 62.0219 52.194 62.2379 52.07C62.4539 51.946 62.6259 51.776 62.7539 51.56C62.8819 51.344 62.9459 51.096 62.9459 50.816C62.9459 50.536 62.8819 50.29 62.7539 50.078C62.6259 49.862 62.4539 49.694 62.2379 49.574C62.0219 49.45 61.7799 49.388 61.5119 49.388C61.2439 49.388 61.0019 49.45 60.7859 49.574C60.5699 49.694 60.3979 49.862 60.2699 50.078C60.1419 50.29 60.0779 50.536 60.0779 50.816C60.0779 51.096 60.1419 51.344 60.2699 51.56C60.3979 51.776 60.5699 51.946 60.7859 52.07C61.0019 52.194 61.2439 52.256 61.5119 52.256Z" fill="#928A97"/>
<path d="M11.9099 120L8.5359 108.45H10.5799L13.0159 117.515L15.8089 108.45H17.1949L19.9949 117.515L22.4309 108.45H24.4679L21.1009 120H19.0569L16.5089 111.999L13.9539 120H11.9099ZM28.8456 120.224C28.071 120.224 27.371 120.063 26.7456 119.741C26.125 119.419 25.6326 118.971 25.2686 118.397C24.9046 117.823 24.7226 117.163 24.7226 116.416C24.7226 115.665 24.9046 115.004 25.2686 114.435C25.6326 113.861 26.125 113.413 26.7456 113.091C27.3663 112.769 28.0663 112.608 28.8456 112.608C29.6203 112.608 30.318 112.769 30.9386 113.091C31.564 113.413 32.0563 113.861 32.4156 114.435C32.7796 115.004 32.9616 115.665 32.9616 116.416C32.9616 117.163 32.7796 117.823 32.4156 118.397C32.0563 118.971 31.564 119.419 30.9386 119.741C30.318 120.063 29.6203 120.224 28.8456 120.224ZM28.8456 118.726C29.2843 118.726 29.6763 118.628 30.0216 118.432C30.3716 118.231 30.647 117.958 30.8476 117.613C31.0483 117.263 31.1486 116.864 31.1486 116.416C31.1486 115.963 31.0483 115.564 30.8476 115.219C30.647 114.869 30.3716 114.596 30.0216 114.4C29.6763 114.204 29.2843 114.106 28.8456 114.106C28.4116 114.106 28.0196 114.204 27.6696 114.4C27.3196 114.596 27.0443 114.869 26.8436 115.219C26.643 115.564 26.5426 115.963 26.5426 116.416C26.5426 116.864 26.643 117.263 26.8436 117.613C27.0443 117.958 27.3196 118.231 27.6696 118.432C28.0196 118.628 28.4116 118.726 28.8456 118.726ZM35.0453 120V112.832H36.7883V113.875C37.0403 113.464 37.3553 113.152 37.7333 112.937C38.1113 112.718 38.5267 112.608 38.9793 112.608C39.2173 112.608 39.46 112.641 39.7073 112.706C39.9593 112.767 40.174 112.848 40.3513 112.951L39.6303 114.428C39.4763 114.335 39.2967 114.26 39.0913 114.204C38.8907 114.148 38.704 114.12 38.5313 114.12C38.2327 114.12 37.9503 114.197 37.6843 114.351C37.4183 114.505 37.2013 114.703 37.0333 114.946C36.87 115.189 36.7883 115.45 36.7883 115.73V120H35.0453ZM44.8022 120.224C44.1489 120.224 43.5516 120.061 43.0102 119.734C42.4736 119.407 42.0466 118.957 41.7292 118.383C41.4166 117.809 41.2602 117.153 41.2602 116.416C41.2602 115.683 41.4142 115.032 41.7222 114.463C42.0349 113.889 42.4596 113.436 42.9962 113.105C43.5376 112.774 44.1536 112.608 44.8442 112.608C45.3949 112.608 45.9012 112.725 46.3632 112.958C46.8252 113.191 47.1986 113.516 47.4832 113.931V107.953H49.2262V120H47.4832V118.852C47.1706 119.281 46.7809 119.617 46.3142 119.86C45.8522 120.103 45.3482 120.224 44.8022 120.224ZM45.3062 118.733C45.7402 118.733 46.1229 118.635 46.4542 118.439C46.7902 118.238 47.0539 117.965 47.2452 117.62C47.4366 117.27 47.5322 116.871 47.5322 116.423C47.5322 115.975 47.4366 115.576 47.2452 115.226C47.0539 114.871 46.7902 114.596 46.4542 114.4C46.1229 114.199 45.7402 114.099 45.3062 114.099C44.8816 114.099 44.5012 114.199 44.1652 114.4C43.8292 114.596 43.5656 114.871 43.3742 115.226C43.1829 115.576 43.0872 115.977 43.0872 116.43C43.0872 116.873 43.1806 117.27 43.3672 117.62C43.5586 117.965 43.8222 118.238 44.1582 118.439C44.4942 118.635 44.8769 118.733 45.3062 118.733ZM52.2661 120V108.45H55.8641C56.6154 108.45 57.2758 108.581 57.8451 108.842C58.4191 109.103 58.8671 109.486 59.1891 109.99C59.5111 110.494 59.6721 111.117 59.6721 111.859C59.6721 112.592 59.5111 113.224 59.1891 113.756C58.8671 114.283 58.4191 114.692 57.8451 114.981C57.2758 115.266 56.6154 115.408 55.8641 115.408H54.1001V120H52.2661ZM54.1001 113.924H55.3251C55.7871 113.924 56.2001 113.849 56.5641 113.7C56.9328 113.551 57.2244 113.329 57.4391 113.035C57.6538 112.736 57.7611 112.361 57.7611 111.908C57.7611 111.455 57.6538 111.082 57.4391 110.788C57.2244 110.494 56.9328 110.277 56.5641 110.137C56.2001 109.992 55.7871 109.92 55.3251 109.92H54.1001V113.924ZM61.3637 120V112.832H63.1067V113.875C63.3587 113.464 63.6737 113.152 64.0517 112.937C64.4297 112.718 64.845 112.608 65.2977 112.608C65.5357 112.608 65.7784 112.641 66.0257 112.706C66.2777 112.767 66.4924 112.848 66.6697 112.951L65.9487 114.428C65.7947 114.335 65.615 114.26 65.4097 114.204C65.209 114.148 65.0224 114.12 64.8497 114.12C64.551 114.12 64.2687 114.197 64.0027 114.351C63.7367 114.505 63.5197 114.703 63.3517 114.946C63.1884 115.189 63.1067 115.45 63.1067 115.73V120H61.3637ZM71.4516 120.224C70.6862 120.224 70.0002 120.058 69.3936 119.727C68.7916 119.396 68.3132 118.943 67.9586 118.369C67.6086 117.795 67.4336 117.149 67.4336 116.43C67.4336 115.898 67.5339 115.401 67.7346 114.939C67.9352 114.477 68.2129 114.071 68.5676 113.721C68.9222 113.371 69.3352 113.098 69.8066 112.902C70.2779 112.706 70.7866 112.608 71.3326 112.608C72.0792 112.608 72.7326 112.762 73.2926 113.07C73.8572 113.378 74.2959 113.807 74.6086 114.358C74.9259 114.909 75.0846 115.55 75.0846 116.283C75.0846 116.344 75.0822 116.395 75.0776 116.437C75.0729 116.474 75.0636 116.54 75.0496 116.633H69.2116C69.2116 117.067 69.3096 117.45 69.5056 117.781C69.7016 118.108 69.9746 118.364 70.3246 118.551C70.6792 118.733 71.0852 118.824 71.5426 118.824C71.9766 118.824 72.3616 118.738 72.6976 118.565C73.0382 118.388 73.3462 118.119 73.6216 117.76L74.8886 118.411C74.5479 118.98 74.0742 119.426 73.4676 119.748C72.8656 120.065 72.1936 120.224 71.4516 120.224ZM69.2886 115.541H73.3556C73.2949 115.214 73.1712 114.932 72.9846 114.694C72.7979 114.456 72.5622 114.272 72.2776 114.141C71.9929 114.006 71.6756 113.938 71.3256 113.938C70.9569 113.938 70.6279 114.003 70.3386 114.134C70.0492 114.265 69.8136 114.449 69.6316 114.687C69.4496 114.925 69.3352 115.21 69.2886 115.541ZM79.115 120.224C78.513 120.224 77.9764 120.112 77.505 119.888C77.0384 119.659 76.658 119.333 76.364 118.908L77.134 117.774C77.4094 118.138 77.715 118.42 78.051 118.621C78.3917 118.822 78.744 118.922 79.108 118.922C79.332 118.922 79.5304 118.882 79.703 118.803C79.8757 118.719 80.0134 118.6 80.116 118.446C80.2187 118.287 80.27 118.101 80.27 117.886C80.27 117.662 80.2117 117.487 80.095 117.361C79.9784 117.235 79.8034 117.121 79.57 117.018C79.3367 116.915 79.0427 116.794 78.688 116.654C78.3894 116.528 78.1047 116.388 77.834 116.234C77.5634 116.08 77.3394 115.886 77.162 115.653C76.9894 115.415 76.903 115.114 76.903 114.75C76.903 114.335 77.0174 113.966 77.246 113.644C77.4794 113.322 77.7967 113.07 78.198 112.888C78.604 112.706 79.066 112.615 79.584 112.615C79.9574 112.615 80.333 112.683 80.711 112.818C81.089 112.949 81.467 113.14 81.845 113.392L81.215 114.491C80.669 114.038 80.13 113.812 79.598 113.812C79.2854 113.812 79.0334 113.887 78.842 114.036C78.6554 114.185 78.562 114.377 78.562 114.61C78.562 114.801 78.6437 114.965 78.807 115.1C78.9704 115.235 79.1734 115.354 79.416 115.457C79.6587 115.56 79.9014 115.658 80.144 115.751C80.5267 115.891 80.8627 116.04 81.152 116.199C81.4414 116.358 81.6677 116.563 81.831 116.815C81.9944 117.067 82.076 117.403 82.076 117.823C82.076 118.327 81.9547 118.759 81.712 119.118C81.474 119.477 81.1334 119.753 80.69 119.944C80.2467 120.131 79.7217 120.224 79.115 120.224ZM86.1971 120.224C85.5951 120.224 85.0584 120.112 84.5871 119.888C84.1204 119.659 83.7401 119.333 83.4461 118.908L84.2161 117.774C84.4914 118.138 84.7971 118.42 85.1331 118.621C85.4737 118.822 85.8261 118.922 86.1901 118.922C86.4141 118.922 86.6124 118.882 86.7851 118.803C86.9577 118.719 87.0954 118.6 87.1981 118.446C87.3007 118.287 87.3521 118.101 87.3521 117.886C87.3521 117.662 87.2937 117.487 87.1771 117.361C87.0604 117.235 86.8854 117.121 86.6521 117.018C86.4187 116.915 86.1247 116.794 85.7701 116.654C85.4714 116.528 85.1867 116.388 84.9161 116.234C84.6454 116.08 84.4214 115.886 84.2441 115.653C84.0714 115.415 83.9851 115.114 83.9851 114.75C83.9851 114.335 84.0994 113.966 84.3281 113.644C84.5614 113.322 84.8787 113.07 85.2801 112.888C85.6861 112.706 86.1481 112.615 86.6661 112.615C87.0394 112.615 87.4151 112.683 87.7931 112.818C88.1711 112.949 88.5491 113.14 88.9271 113.392L88.2971 114.491C87.7511 114.038 87.2121 113.812 86.6801 113.812C86.3674 113.812 86.1154 113.887 85.9241 114.036C85.7374 114.185 85.6441 114.377 85.6441 114.61C85.6441 114.801 85.7257 114.965 85.8891 115.1C86.0524 115.235 86.2554 115.354 86.4981 115.457C86.7407 115.56 86.9834 115.658 87.2261 115.751C87.6087 115.891 87.9447 116.04 88.2341 116.199C88.5234 116.358 88.7497 116.563 88.9131 116.815C89.0764 117.067 89.1581 117.403 89.1581 117.823C89.1581 118.327 89.0367 118.759 88.7941 119.118C88.5561 119.477 88.2154 119.753 87.7721 119.944C87.3287 120.131 86.8037 120.224 86.1971 120.224Z" fill="#000C24"/>
</svg>
