<svg width="35" height="35" viewBox="0 0 35 35" fill="none" xmlns="http://www.w3.org/2000/svg">
<path fill-rule="evenodd" clip-rule="evenodd" d="M17.1205 34.3915C26.4493 34.3915 34.0117 26.829 34.0117 17.5003C34.0117 8.17156 26.4493 0.609131 17.1205 0.609131C7.7918 0.609131 0.22937 8.17156 0.22937 17.5003C0.22937 26.829 7.7918 34.3915 17.1205 34.3915ZM12.4301 17.5003C12.4301 14.9174 14.538 12.8095 17.1209 12.8095C19.7039 12.8095 21.8117 14.9174 21.8117 17.5003C21.8117 20.0832 19.7039 22.1911 17.1209 22.1911C14.538 22.1911 12.4301 20.0832 12.4301 17.5003ZM9.90347 17.5003C9.90347 21.4944 13.1269 24.7177 17.1209 24.7177C21.115 24.7177 24.3384 21.4944 24.3384 17.5003C24.3384 13.5062 21.115 10.2828 17.1209 10.2828C13.1269 10.2828 9.90347 13.5062 9.90347 17.5003ZM22.9484 9.98725C22.9484 10.9198 23.7014 11.6728 24.634 11.6728C24.8554 11.6731 25.0747 11.6297 25.2794 11.5451C25.484 11.4605 25.6699 11.3363 25.8265 11.1798C25.9831 11.0232 26.1072 10.8373 26.1918 10.6326C26.2764 10.428 26.3199 10.2087 26.3196 9.98725C26.3196 9.05472 25.5665 8.30165 24.634 8.30165C23.7014 8.30165 22.9484 9.05472 22.9484 9.98725Z" fill="#928A97"/>
</svg>
