<svg width="207" height="34" viewBox="0 0 207 34" fill="none" xmlns="http://www.w3.org/2000/svg">
<path d="M0.141 32.5L-0.606081 32.4339C-0.624626 32.6435 -0.55428 32.8512 -0.412208 33.0064C-0.270136 33.1616 -0.0694063 33.25 0.141 33.25V32.5ZM2.915 1.15V0.399998C2.52641 0.399998 2.20217 0.696811 2.16792 1.08389L2.915 1.15ZM10.705 1.15L11.405 0.880614C11.2935 0.591049 11.0153 0.399998 10.705 0.399998V1.15ZM17.564 18.972L16.864 19.2414C16.9755 19.5309 17.2537 19.722 17.564 19.722C17.8743 19.722 18.1525 19.5309 18.264 19.2414L17.564 18.972ZM24.423 1.15V0.399998C24.1127 0.399998 23.8345 0.591048 23.723 0.880614L24.423 1.15ZM32.213 1.15L32.9601 1.08389C32.9258 0.696811 32.6016 0.399998 32.213 0.399998V1.15ZM34.987 32.5V33.25C35.1974 33.25 35.3981 33.1616 35.5402 33.0064C35.6823 32.8512 35.7526 32.6435 35.7341 32.4339L34.987 32.5ZM27.672 32.5L26.9242 32.5576C26.9543 32.9483 27.2801 33.25 27.672 33.25V32.5ZM26.266 14.241L27.0138 14.1834C26.9867 13.8312 26.7175 13.5457 26.3675 13.4979C26.0175 13.4501 25.6816 13.653 25.561 13.9851L26.266 14.241ZM19.768 32.139V32.889C20.0835 32.889 20.3653 32.6915 20.473 32.3949L19.768 32.139ZM15.36 32.139L14.655 32.3949C14.7627 32.6915 15.0445 32.889 15.36 32.889V32.139ZM8.862 14.241L9.56698 13.9851C9.44638 13.6529 9.11026 13.45 8.76015 13.4979C8.41004 13.5459 8.14092 13.8318 8.11416 14.1842L8.862 14.241ZM7.475 32.5V33.25C7.86718 33.25 8.19314 32.9479 8.22285 32.5568L7.475 32.5ZM0.888081 32.5661L3.66208 1.2161L2.16792 1.08389L-0.606081 32.4339L0.888081 32.5661ZM2.915 1.9H10.705V0.399998H2.915V1.9ZM10.005 1.41938L16.864 19.2414L18.264 18.7026L11.405 0.880614L10.005 1.41938ZM18.264 19.2414L25.123 1.41938L23.723 0.880614L16.864 18.7026L18.264 19.2414ZM24.423 1.9H32.213V0.399998H24.423V1.9ZM31.4659 1.2161L34.2399 32.5661L35.7341 32.4339L32.9601 1.08389L31.4659 1.2161ZM34.987 31.75H27.672V33.25H34.987V31.75ZM28.4198 32.4424L27.0138 14.1834L25.5182 14.2986L26.9242 32.5576L28.4198 32.4424ZM25.561 13.9851L19.063 31.8831L20.473 32.3949L26.971 14.4969L25.561 13.9851ZM19.768 31.389H15.36V32.889H19.768V31.389ZM16.065 31.8831L9.56698 13.9851L8.15703 14.4969L14.655 32.3949L16.065 31.8831ZM8.11416 14.1842L6.72716 32.4432L8.22285 32.5568L9.60985 14.2978L8.11416 14.1842ZM7.475 31.75H0.141V33.25H7.475V31.75ZM45.4052 32.5H44.6552C44.6552 32.9142 44.991 33.25 45.4052 33.25V32.5ZM45.4052 1.15V0.399998C44.991 0.399998 44.6552 0.735785 44.6552 1.15H45.4052ZM52.7202 1.15H53.4702C53.4702 0.735785 53.1344 0.399998 52.7202 0.399998V1.15ZM52.7202 32.5V33.25C53.1344 33.25 53.4702 32.9142 53.4702 32.5H52.7202ZM46.1552 32.5V1.15H44.6552V32.5H46.1552ZM45.4052 1.9H52.7202V0.399998H45.4052V1.9ZM51.9702 1.15V32.5H53.4702V1.15H51.9702ZM52.7202 31.75H45.4052V33.25H52.7202V31.75ZM64.4943 32.5H63.7443C63.7443 32.9142 64.0801 33.25 64.4943 33.25V32.5ZM64.4943 1.15V0.399998C64.0801 0.399998 63.7443 0.735785 63.7443 1.15H64.4943ZM81.7463 2.309L81.4216 2.98507L81.4259 2.98713L81.7463 2.309ZM86.0403 15.039L85.3474 14.752L85.3459 14.7556L86.0403 15.039ZM83.8363 18.25L84.3444 18.8017L84.3483 18.798L83.8363 18.25ZM80.3213 20.302L80.0744 19.5938C79.8419 19.6748 79.6641 19.8648 79.5984 20.1021C79.5328 20.3393 79.5878 20.5937 79.7456 20.7827L80.3213 20.302ZM90.5053 32.5V33.25C90.7964 33.25 91.0613 33.0815 91.1846 32.8178C91.308 32.5541 91.2676 32.2428 91.081 32.0193L90.5053 32.5ZM81.2143 32.5L80.62 32.9575C80.762 33.1419 80.9815 33.25 81.2143 33.25V32.5ZM72.5123 21.195L73.1066 20.7375C72.9646 20.5531 72.7451 20.445 72.5123 20.445V21.195ZM71.8093 21.195V20.445C71.3951 20.445 71.0593 20.7808 71.0593 21.195H71.8093ZM71.8093 32.5V33.25C72.2235 33.25 72.5593 32.9142 72.5593 32.5H71.8093ZM71.8093 15.115H71.0593C71.0593 15.5292 71.3951 15.865 71.8093 15.865V15.115ZM76.6733 14.659L76.9403 15.3599L76.9499 15.3561L76.6733 14.659ZM78.4783 13.272L77.8602 12.8471L77.8543 12.856L78.4783 13.272ZM77.7183 8.028L78.1696 7.42898L77.7183 8.028ZM71.8093 6.983V6.233C71.3951 6.233 71.0593 6.56879 71.0593 6.983H71.8093ZM65.2443 32.5V1.15H63.7443V32.5H65.2443ZM64.4943 1.9H76.0843V0.399998H64.4943V1.9ZM76.0843 1.9C78.1615 1.9 79.9336 2.27035 81.4216 2.98506L82.071 1.63294C80.3417 0.802313 78.3391 0.399998 76.0843 0.399998V1.9ZM81.4259 2.98713C82.9098 3.68816 84.0437 4.69399 84.8502 6.00745L86.1284 5.22255C85.1616 3.64801 83.8002 2.44984 82.0667 1.63087L81.4259 2.98713ZM84.8502 6.00745C85.6504 7.31066 86.0693 8.9162 86.0693 10.859H87.5693C87.5693 8.69779 87.1015 6.80734 86.1284 5.22255L84.8502 6.00745ZM86.0693 10.859C86.0693 12.3059 85.8245 13.6 85.3474 14.752L86.7332 15.326C87.2948 13.97 87.5693 12.4775 87.5693 10.859H86.0693ZM85.3459 14.7556C84.8795 15.8984 84.2063 16.8779 83.3243 17.7019L84.3483 18.798C85.3916 17.8234 86.1878 16.6623 86.7347 15.3224L85.3459 14.7556ZM83.3282 17.6983C82.4494 18.5078 81.3696 19.1423 80.0744 19.5938L80.5682 21.0102C82.0343 20.4991 83.2979 19.7655 84.3444 18.8017L83.3282 17.6983ZM79.7456 20.7827L89.9296 32.9807L91.081 32.0193L80.897 19.8213L79.7456 20.7827ZM90.5053 31.75H81.2143V33.25H90.5053V31.75ZM81.8086 32.0425L73.1066 20.7375L71.918 21.6525L80.62 32.9575L81.8086 32.0425ZM72.5123 20.445H71.8093V21.945H72.5123V20.445ZM71.0593 21.195V32.5H72.5593V21.195H71.0593ZM71.8093 31.75H64.4943V33.25H71.8093V31.75ZM71.8093 15.865H73.7283V14.365H71.8093V15.865ZM73.7283 15.865C74.9538 15.865 76.0322 15.7058 76.9403 15.3599L76.4063 13.9581C75.7184 14.2202 74.8335 14.365 73.7283 14.365V15.865ZM76.9499 15.3561C77.8642 14.9933 78.5985 14.4438 79.1023 13.688L77.8543 12.856C77.5475 13.3162 77.0784 13.6913 76.3967 13.9619L76.9499 15.3561ZM79.0963 13.6969C79.614 12.944 79.8553 12.055 79.8553 11.068H78.3553C78.3553 11.8037 78.1786 12.384 77.8603 12.8471L79.0963 13.6969ZM79.8553 11.068C79.8553 9.5424 79.3121 8.28976 78.1696 7.42898L77.267 8.62701C77.9738 9.15957 78.3553 9.9336 78.3553 11.068H79.8553ZM78.1696 7.42898C77.0644 6.59626 75.5492 6.233 73.7283 6.233V7.733C75.3781 7.733 76.5229 8.06641 77.267 8.62701L78.1696 7.42898ZM73.7283 6.233H71.8093V7.733H73.7283V6.233ZM71.0593 6.983V15.115H72.5593V6.983H71.0593ZM102.054 32.709L102.213 31.9759L102.205 31.9745L102.054 32.709ZM98.691 31.702L98.4019 32.3941L98.405 32.3953L98.691 31.702ZM96.031 30.372L95.6374 31.0104L95.6421 31.0133L96.031 30.372ZM94.188 29.042L93.5437 28.6582C93.3598 28.9669 93.4207 29.3626 93.6888 29.6017L94.188 29.042ZM97.855 22.886L98.3026 22.2842C98.1323 22.1575 97.9163 22.109 97.7082 22.1505C97.5001 22.1921 97.3193 22.3199 97.2107 22.5022L97.855 22.886ZM99.527 24.045L99.1169 24.673L99.1227 24.6767L99.527 24.045ZM101.56 25.166L101.239 25.8438L101.56 25.166ZM103.821 26.002L103.623 26.7253L103.821 26.002ZM108.153 26.002L108.429 26.6995L108.153 26.002ZM109.426 25.033L110.039 25.4655V25.4655L109.426 25.033ZM109.464 21.879L108.821 22.2649C108.825 22.2721 108.83 22.2793 108.834 22.2864L109.464 21.879ZM108.229 20.644L107.807 21.2637H107.807L108.229 20.644ZM106.101 19.466L105.77 20.1389L105.782 20.1446L106.101 19.466ZM103.08 18.041L102.761 18.7197L102.769 18.7233L103.08 18.041ZM100.667 16.654L100.239 17.2699H100.239L100.667 16.654ZM98.71 14.887L99.2826 14.4025L98.71 14.887ZM97.418 12.702L98.1189 12.435L97.418 12.702ZM97.703 6.546L97.0189 6.23853L97.0161 6.24498L97.703 6.546ZM99.85 3.506L99.3308 2.9648L99.3271 2.96836L99.85 3.506ZM103.194 1.378L103.474 2.07389L103.477 2.07248L103.194 1.378ZM110.927 0.978999L110.76 1.71019L110.762 1.71058L110.927 0.978999ZM114.29 2.043L114.002 2.73531V2.73531L114.29 2.043ZM117.045 3.544L117.714 3.88376C117.881 3.55427 117.784 3.15193 117.484 2.93573L117.045 3.544ZM114.081 9.377L113.656 9.99503C113.834 10.1175 114.057 10.1571 114.266 10.1038C114.475 10.0505 114.652 9.90945 114.75 9.71676L114.081 9.377ZM112.086 8.275L111.77 8.95525C111.775 8.9575 111.78 8.9597 111.785 8.96184L112.086 8.275ZM109.901 7.515L109.728 8.24474V8.24474L109.901 7.515ZM105.778 7.591L106.065 8.28385L106.073 8.28036L105.778 7.591ZM104.562 8.522L103.953 8.08426L103.95 8.08794L104.562 8.522ZM104.391 10.935L103.738 11.304C103.74 11.3082 103.743 11.3124 103.745 11.3165L104.391 10.935ZM105.132 11.695L104.705 12.3116C104.714 12.3179 104.723 12.3239 104.732 12.3297L105.132 11.695ZM106.405 12.36L106.713 11.6761L106.405 12.36ZM108.191 13.12L108.49 12.4321C108.485 12.4298 108.479 12.4276 108.474 12.4254L108.191 13.12ZM112.333 15.096L111.981 15.7584L111.987 15.7612L112.333 15.096ZM115.392 17.186L114.883 17.7371L114.888 17.741L115.392 17.186ZM117.273 19.808L116.582 20.1003L116.587 20.1109L117.273 19.808ZM116.437 28.567L115.815 28.1485L115.812 28.1522L116.437 28.567ZM112.295 31.949L112.593 32.6374L112.597 32.6356L112.295 31.949ZM105.987 32.358C104.641 32.358 103.384 32.2296 102.213 31.976L101.895 33.442C103.181 33.7204 104.546 33.858 105.987 33.858V32.358ZM102.205 31.9745C101.016 31.7293 99.9412 31.4064 98.977 31.0087L98.405 32.3953C99.4675 32.8336 100.634 33.1821 101.903 33.4436L102.205 31.9745ZM98.9801 31.01C98.0074 30.6036 97.1551 30.1766 96.42 29.7307L95.6421 31.0133C96.4523 31.5047 97.3734 31.9644 98.4019 32.394L98.9801 31.01ZM96.4247 29.7336C95.6879 29.2792 95.1126 28.8617 94.6872 28.4823L93.6888 29.6017C94.2008 30.0583 94.8542 30.5274 95.6374 31.0104L96.4247 29.7336ZM94.8324 29.4258L98.4994 23.2698L97.2107 22.5022L93.5437 28.6582L94.8324 29.4258ZM97.4075 23.4878C97.9159 23.8659 98.486 24.2609 99.1169 24.673L99.9371 23.417C99.3267 23.0184 98.7822 22.6408 98.3026 22.2842L97.4075 23.4878ZM99.1227 24.6767C99.7844 25.1002 100.49 25.4891 101.239 25.8438L101.881 24.4882C101.186 24.1589 100.536 23.8005 99.9313 23.4133L99.1227 24.6767ZM101.239 25.8438C102.001 26.2049 102.796 26.4986 103.623 26.7253L104.019 25.2787C103.275 25.0747 102.563 24.8111 101.881 24.4882L101.239 25.8438ZM103.623 26.7253C104.471 26.958 105.33 27.075 106.196 27.075V25.575C105.466 25.575 104.741 25.4767 104.019 25.2787L103.623 26.7253ZM106.196 27.075C107.024 27.075 107.774 26.9581 108.429 26.6995L107.877 25.3045C107.442 25.4765 106.888 25.575 106.196 25.575V27.075ZM108.429 26.6995C109.094 26.4367 109.641 26.0284 110.039 25.4655L108.813 24.6005C108.603 24.8989 108.302 25.1367 107.877 25.3045L108.429 26.6995ZM110.039 25.4655C110.451 24.8822 110.632 24.1835 110.632 23.418H109.132C109.132 23.9445 109.01 24.3225 108.813 24.6005L110.039 25.4655ZM110.632 23.418C110.632 22.7018 110.463 22.0421 110.094 21.4716L108.834 22.2864C109.023 22.5772 109.132 22.9435 109.132 23.418H110.632ZM110.107 21.4931C109.771 20.9331 109.272 20.4476 108.652 20.0243L107.807 21.2637C108.3 21.6004 108.625 21.9383 108.821 22.2649L110.107 21.4931ZM108.652 20.0243C108.051 19.615 107.304 19.2033 106.42 18.7874L105.782 20.1446C106.62 20.5393 107.292 20.913 107.807 21.2637L108.652 20.0243ZM106.432 18.7932C105.575 18.371 104.561 17.8928 103.392 17.3587L102.769 18.7233C103.929 19.2532 104.929 19.725 105.77 20.1388L106.432 18.7932ZM103.399 17.3624C102.574 16.9741 101.806 16.5325 101.095 16.0381L100.239 17.2699C101.022 17.8142 101.863 18.2973 102.761 18.7196L103.399 17.3624ZM101.095 16.0381C100.398 15.5541 99.7954 15.0086 99.2826 14.4025L98.1375 15.3715C98.7393 16.0827 99.4409 16.7153 100.239 17.2699L101.095 16.0381ZM99.2826 14.4025C98.7794 13.8079 98.3924 13.1529 98.1189 12.435L96.7172 12.969C97.0517 13.847 97.526 14.6488 98.1375 15.3715L99.2826 14.4025ZM98.1189 12.435C97.8508 11.7313 97.712 10.949 97.712 10.08H96.212C96.212 11.111 96.3772 12.0767 96.7172 12.969L98.1189 12.435ZM97.712 10.08C97.712 8.95514 97.9375 7.87962 98.39 6.84702L97.0161 6.24498C96.4806 7.46705 96.212 8.74753 96.212 10.08H97.712ZM98.3871 6.85345C98.8534 5.81606 99.513 4.88001 100.373 4.04364L99.3271 2.96836C98.3377 3.93066 97.566 5.02127 97.019 6.23854L98.3871 6.85345ZM100.369 4.04719C101.233 3.21892 102.264 2.56004 103.474 2.07388L102.914 0.682112C101.54 1.23462 100.342 1.99441 99.3308 2.96481L100.369 4.04719ZM103.477 2.07248C104.682 1.58141 106.028 1.33 107.526 1.33V-0.170001C105.858 -0.170001 104.316 0.110586 102.911 0.683515L103.477 2.07248ZM107.526 1.33C108.567 1.33 109.645 1.45564 110.76 1.71019L111.094 0.247806C109.878 -0.0296469 108.689 -0.170001 107.526 -0.170001V1.33ZM110.762 1.71058C111.9 1.96751 112.979 2.30936 114.002 2.73531L114.578 1.35069C113.473 0.889971 112.31 0.522482 111.092 0.247418L110.762 1.71058ZM114.002 2.73531C115.023 3.16094 115.889 3.63478 116.606 4.15227L117.484 2.93573C116.656 2.33855 115.685 1.81172 114.578 1.35069L114.002 2.73531ZM116.376 3.20424L113.412 9.03724L114.75 9.71676L117.714 3.88376L116.376 3.20424ZM114.506 8.75897C113.856 8.31243 113.15 7.92253 112.387 7.58816L111.785 8.96184C112.466 9.26081 113.09 9.60557 113.656 9.99503L114.506 8.75897ZM112.402 7.59474C111.648 7.24454 110.872 6.97446 110.074 6.78526L109.728 8.24474C110.425 8.41021 111.106 8.64678 111.77 8.95525L112.402 7.59474ZM110.074 6.78526C109.274 6.59532 108.481 6.499 107.697 6.499V7.999C108.357 7.999 109.034 8.08001 109.728 8.24474L110.074 6.78526ZM107.697 6.499C106.876 6.499 106.131 6.62381 105.483 6.90164L106.073 8.28036C106.489 8.10219 107.023 7.999 107.697 7.999V6.499ZM105.491 6.89819C104.859 7.16004 104.336 7.55179 103.953 8.08427L105.171 8.95973C105.371 8.68154 105.658 8.45263 106.065 8.2838L105.491 6.89819ZM103.95 8.08794C103.572 8.6207 103.394 9.23855 103.394 9.909H104.894C104.894 9.51545 104.994 9.20863 105.174 8.95606L103.95 8.08794ZM103.394 9.909C103.394 10.4084 103.5 10.882 103.738 11.304L105.044 10.566C104.953 10.4053 104.894 10.1949 104.894 9.909H103.394ZM103.745 11.3165C103.977 11.7079 104.307 12.0363 104.705 12.3116L105.559 11.0784C105.298 10.8977 105.135 10.7195 105.037 10.5535L103.745 11.3165ZM104.732 12.3297C105.112 12.5689 105.57 12.8065 106.097 13.0439L106.713 11.6761C106.227 11.4575 105.836 11.2517 105.532 11.0603L104.732 12.3297ZM106.097 13.0439C106.614 13.2766 107.218 13.5335 107.908 13.8146L108.474 12.4254C107.796 12.1491 107.209 11.8994 106.713 11.6761L106.097 13.0439ZM107.892 13.8079C109.423 14.4731 110.786 15.1233 111.981 15.7583L112.685 14.4337C111.448 13.7767 110.049 13.1096 108.49 12.4321L107.892 13.8079ZM111.987 15.7612C113.156 16.3704 114.118 17.0309 114.883 17.7371L115.901 16.6349C115.019 15.8211 113.942 15.0883 112.679 14.4308L111.987 15.7612ZM114.888 17.741C115.648 18.4319 116.209 19.2176 116.582 20.1002L117.964 19.5158C117.501 18.4224 116.809 17.4601 115.897 16.631L114.888 17.741ZM116.587 20.1109C116.966 20.9703 117.169 22.0153 117.169 23.266H118.669C118.669 21.8567 118.441 20.5963 117.959 19.5051L116.587 20.1109ZM117.169 23.266C117.169 25.207 116.706 26.8224 115.815 28.1485L117.059 28.9855C118.144 27.3729 118.669 25.4544 118.669 23.266H117.169ZM115.812 28.1522C114.925 29.4894 113.662 30.5285 111.993 31.2624L112.597 32.6356C114.5 31.7988 115.999 30.5833 117.062 28.9818L115.812 28.1522ZM111.997 31.2607C110.325 31.984 108.328 32.358 105.987 32.358V33.858C108.485 33.858 110.693 33.4593 112.593 32.6373L111.997 31.2607ZM123.15 32.5L122.455 32.2186C122.361 32.4497 122.389 32.7123 122.528 32.9192C122.668 33.126 122.901 33.25 123.15 33.25V32.5ZM135.842 1.15V0.399998C135.537 0.399998 135.262 0.585343 135.147 0.868552L135.842 1.15ZM142.644 1.15L143.34 0.868914C143.225 0.585514 142.95 0.399998 142.644 0.399998V1.15ZM155.317 32.5V33.25C155.567 33.25 155.8 33.1261 155.939 32.9193C156.078 32.7126 156.106 32.4501 156.013 32.2189L155.317 32.5ZM147.432 32.5L146.728 32.7581C146.836 33.0535 147.118 33.25 147.432 33.25V32.5ZM145.19 26.382L145.894 26.1239C145.786 25.8285 145.505 25.632 145.19 25.632V26.382ZM133.296 26.382V25.632C132.982 25.632 132.702 25.8275 132.593 26.122L133.296 26.382ZM131.035 32.5V33.25C131.349 33.25 131.63 33.0545 131.739 32.76L131.035 32.5ZM135.785 19.96L135.086 19.6877C134.997 19.9184 135.026 20.1787 135.166 20.3832C135.306 20.5877 135.538 20.71 135.785 20.71V19.96ZM142.682 19.96V20.71C142.93 20.71 143.161 20.588 143.301 20.3838C143.441 20.1797 143.471 19.9197 143.382 19.689L142.682 19.96ZM139.243 11.087L139.943 10.816C139.831 10.5275 139.553 10.3373 139.244 10.337C138.935 10.3367 138.657 10.5264 138.544 10.8147L139.243 11.087ZM123.845 32.7814L136.537 1.43144L135.147 0.868552L122.455 32.2186L123.845 32.7814ZM135.842 1.9H142.644V0.399998H135.842V1.9ZM141.949 1.43108L154.622 32.7811L156.013 32.2189L143.34 0.868914L141.949 1.43108ZM155.317 31.75H147.432V33.25H155.317V31.75ZM148.136 32.2419L145.894 26.1239L144.486 26.6401L146.728 32.7581L148.136 32.2419ZM145.19 25.632H133.296V27.132H145.19V25.632ZM132.593 26.122L130.332 32.24L131.739 32.76L134 26.642L132.593 26.122ZM131.035 31.75H123.15V33.25H131.035V31.75ZM135.785 20.71H142.682V19.21H135.785V20.71ZM143.382 19.689L139.943 10.816L138.544 11.358L141.983 20.231L143.382 19.689ZM138.544 10.8147L135.086 19.6877L136.484 20.2323L139.942 11.3593L138.544 10.8147ZM162.842 32.5H162.092C162.092 32.9142 162.427 33.25 162.842 33.25V32.5ZM162.842 1.15V0.399998C162.427 0.399998 162.092 0.735785 162.092 1.15H162.842ZM170.157 1.15H170.907C170.907 0.735785 170.571 0.399998 170.157 0.399998V1.15ZM170.157 32.5V33.25C170.571 33.25 170.907 32.9142 170.907 32.5H170.157ZM163.592 32.5V1.15H162.092V32.5H163.592ZM162.842 1.9H170.157V0.399998H162.842V1.9ZM169.407 1.15V32.5H170.907V1.15H169.407ZM170.157 31.75H162.842V33.25H170.157V31.75ZM181.931 32.5H181.181C181.181 32.9142 181.516 33.25 181.931 33.25V32.5ZM181.931 1.15V0.399998C181.516 0.399998 181.181 0.735785 181.181 1.15H181.931ZM197.302 2.347L197.59 1.65483L197.59 1.65483L197.302 2.347ZM202.318 5.691L201.787 6.22133L201.79 6.22366L202.318 5.691ZM205.681 10.707L204.988 10.9958L204.991 11.0013L205.681 10.707ZM205.7 23.019L206.391 23.3094L205.7 23.019ZM202.337 27.997L201.811 27.462L201.809 27.4643L202.337 27.997ZM197.302 31.322L197.587 32.0158L197.589 32.0148L197.302 31.322ZM189.246 25.945H188.496C188.496 26.3592 188.831 26.695 189.246 26.695V25.945ZM193.749 25.28L194.037 25.9723L194.044 25.9694L193.749 25.28ZM196.504 23.38L195.961 22.8623L195.961 22.8625L196.504 23.38ZM198.328 20.492L197.631 20.2148L197.629 20.219L198.328 20.492ZM198.347 13.196L197.647 13.4663L197.648 13.469L198.347 13.196ZM196.523 10.289L195.98 10.8067V10.8067L196.523 10.289ZM193.749 8.389L193.453 9.07839L193.46 9.08131L193.749 8.389ZM189.246 7.705V6.955C188.831 6.955 188.496 7.29079 188.496 7.705H189.246ZM182.681 32.5V1.15H181.181V32.5H182.681ZM181.931 1.9H191.089V0.399998H181.931V1.9ZM191.089 1.9C193.226 1.9 195.198 2.28216 197.013 3.03917L197.59 1.65483C195.58 0.815838 193.41 0.399998 191.089 0.399998V1.9ZM197.013 3.03917C198.837 3.80041 200.427 4.86085 201.787 6.22133L202.848 5.16067C201.346 3.65848 199.591 2.48958 197.59 1.65483L197.013 3.03917ZM201.79 6.22366C203.162 7.58396 204.228 9.17264 204.988 10.9958L206.373 10.4182C205.537 8.41603 204.361 6.6607 202.846 5.15834L201.79 6.22366ZM204.991 11.0013C205.759 12.8022 206.147 14.7533 206.147 16.863H207.647C207.647 14.5647 207.223 12.4118 206.37 10.4127L204.991 11.0013ZM206.147 16.863C206.147 18.9743 205.765 20.9268 205.008 22.7286L206.391 23.3094C207.23 21.3112 207.647 19.1597 207.647 16.863H206.147ZM205.008 22.7286C204.248 24.5386 203.183 26.1143 201.811 27.462L202.862 28.532C204.379 27.0423 205.555 25.2994 206.391 23.3094L205.008 22.7286ZM201.809 27.4643C200.449 28.8121 198.853 29.8671 197.014 30.6292L197.589 32.0148C199.601 31.1809 201.362 30.0192 202.865 28.5297L201.809 27.4643ZM197.017 30.6282C195.201 31.3736 193.228 31.75 191.089 31.75V33.25C193.408 33.25 195.577 32.8411 197.587 32.0158L197.017 30.6282ZM191.089 31.75H181.931V33.25H191.089V31.75ZM189.246 26.695H190.234V25.195H189.246V26.695ZM190.234 26.695C191.601 26.695 192.872 26.4577 194.037 25.9723L193.46 24.5877C192.497 24.989 191.425 25.195 190.234 25.195V26.695ZM194.044 25.9694C195.198 25.4748 196.201 24.7841 197.047 23.8975L195.961 22.8625C195.26 23.5973 194.427 24.1732 193.453 24.5906L194.044 25.9694ZM197.046 23.8977C197.902 23.0009 198.561 21.9542 199.026 20.765L197.629 20.219C197.232 21.2338 196.676 22.1125 195.961 22.8623L197.046 23.8977ZM199.025 20.7692C199.507 19.5572 199.743 18.2396 199.743 16.825H198.243C198.243 18.0704 198.035 19.1975 197.631 20.2148L199.025 20.7692ZM199.743 16.825C199.743 15.4248 199.513 14.1213 199.045 12.923L197.648 13.469C198.041 14.4747 198.243 15.5905 198.243 16.825H199.743ZM199.046 12.9257C198.582 11.7238 197.922 10.6696 197.065 9.77134L195.98 10.8067C196.694 11.5551 197.25 12.4389 197.647 13.4663L199.046 12.9257ZM197.065 9.77134C196.207 8.8718 195.196 8.17946 194.037 7.69669L193.46 9.08131C194.43 9.4852 195.267 10.0595 195.98 10.8067L197.065 9.77134ZM194.044 7.69964C192.877 7.19961 191.604 6.955 190.234 6.955V8.455C191.422 8.455 192.492 8.66639 193.453 9.07836L194.044 7.69964ZM190.234 6.955H189.246V8.455H190.234V6.955ZM188.496 7.705V25.945H189.996V7.705H188.496Z" fill="white"/>
</svg>
