<svg width="34" height="35" viewBox="0 0 34 35" fill="none" xmlns="http://www.w3.org/2000/svg">
<path fill-rule="evenodd" clip-rule="evenodd" d="M17.0171 34.3912C26.3459 34.3912 33.9083 26.8288 33.9083 17.5C33.9083 8.17132 26.3459 0.608887 17.0171 0.608887C7.68841 0.608887 0.125977 8.17132 0.125977 17.5C0.125977 26.8288 7.68841 34.3912 17.0171 34.3912ZM24.604 14.1252C24.604 13.9563 24.604 13.7839 24.5934 13.6185C25.357 13.066 26.0221 12.3728 26.5535 11.5916C25.8497 11.8977 25.0896 12.1159 24.3014 12.2003C25.1142 11.7182 25.7265 10.9546 26.0186 10.0502C25.2656 10.4936 24.421 10.8244 23.5377 10.9898C22.8234 10.2297 21.8099 9.75817 20.6838 9.75817C18.298 9.75817 16.3132 11.9083 16.8657 14.5651C15.3111 14.4875 13.7901 14.0837 12.4018 13.3798C11.0134 12.6759 9.78869 11.6878 8.80723 10.4796C8.46589 11.0567 8.27586 11.7218 8.27586 12.4502C8.2763 13.0937 8.4355 13.7271 8.73935 14.2943C9.04321 14.8614 9.48232 15.3449 10.0178 15.7017C9.38083 15.6771 8.77204 15.4976 8.25475 15.2056V15.2548C8.25294 16.1571 8.56357 17.0322 9.13385 17.7314C9.70413 18.4307 10.4989 18.9109 11.3831 19.0905C10.7638 19.2489 10.2219 19.2489 9.62012 19.1609C10.1128 20.7093 11.5556 21.8353 13.2728 21.8705C11.9321 22.9192 10.25 23.5385 8.42014 23.5385C8.09639 23.5385 7.79376 23.5245 7.47705 23.4893C9.20839 24.5978 11.2635 25.2417 13.4805 25.2417C20.6698 25.2417 24.604 19.2911 24.604 14.1252Z" fill="#928A97"/>
</svg>
